<svg width="328" height="400" viewBox="0 0 328 400" fill="none" xmlns="http://www.w3.org/2000/svg">
<g clip-path="url(#clip0_854_1497)">
<path d="M0 50C0 22.3858 22.3858 0 50 0H322C325.314 0 328 2.68629 328 6V350C328 377.614 305.614 400 278 400H5.99999C2.68629 400 0 397.314 0 394V50Z" fill="url(#paint0_linear_854_1497)"/>
<g opacity="0.1">
<circle cx="8.39286" cy="26.3772" r="18.6522" transform="rotate(45.5 8.39286 26.3772)" fill="#FAF9FF"/>
<circle cx="81.9583" cy="101.239" r="18.6522" transform="rotate(45.5 81.9583 101.239)" fill="#FAF9FF"/>
<circle cx="45.1761" cy="63.8079" r="18.6522" transform="rotate(45.5 45.1761 63.8079)" fill="#FAF9FF"/>
<circle cx="118.742" cy="138.669" r="18.6522" transform="rotate(45.5 118.742 138.669)" fill="#FAF9FF"/>
<circle cx="192.307" cy="213.531" r="18.6522" transform="rotate(45.5 192.307 213.531)" fill="#FAF9FF"/>
<circle cx="155.525" cy="176.1" r="18.6522" transform="rotate(45.5 155.525 176.1)" fill="#FAF9FF"/>
<circle cx="44.5281" cy="138.022" r="18.6522" transform="rotate(45.5 44.5281 138.022)" fill="#FAF9FF"/>
<circle cx="7.74491" cy="100.591" r="18.6522" transform="rotate(45.5 7.74491 100.591)" fill="#FAF9FF"/>
<circle cx="81.3108" cy="175.452" r="18.6522" transform="rotate(45.5 81.3108 175.452)" fill="#FAF9FF"/>
<circle cx="154.877" cy="250.314" r="18.6522" transform="rotate(45.5 154.877 250.314)" fill="#FAF9FF"/>
<circle cx="118.094" cy="212.883" r="18.6522" transform="rotate(45.5 118.094 212.883)" fill="#FAF9FF"/>
<circle cx="6.4495" cy="249.018" r="18.6522" transform="rotate(45.5 6.4495 249.018)" fill="#FAF9FF"/>
<circle cx="80.0159" cy="323.88" r="18.6522" transform="rotate(45.5 80.0159 323.88)" fill="#FAF9FF"/>
<circle cx="43.2327" cy="286.449" r="18.6522" transform="rotate(45.5 43.2327 286.449)" fill="#FAF9FF"/>
<circle cx="7.09696" cy="174.805" r="18.6522" transform="rotate(45.5 7.09696 174.805)" fill="#FAF9FF"/>
<circle cx="43.8806" cy="212.235" r="18.6522" transform="rotate(45.5 43.8806 212.235)" fill="#FAF9FF"/>
<circle cx="117.446" cy="287.097" r="18.6522" transform="rotate(45.5 117.446 287.097)" fill="#FAF9FF"/>
<circle cx="80.6638" cy="249.666" r="18.6522" transform="rotate(45.5 80.6638 249.666)" fill="#FAF9FF"/>
<circle cx="42.5852" cy="360.663" r="18.6522" transform="rotate(45.5 42.5852 360.663)" fill="#FAF9FF"/>
<circle cx="5.80155" cy="323.232" r="18.6522" transform="rotate(45.5 5.80155 323.232)" fill="#FAF9FF"/>
<circle cx="5.15409" cy="397.446" r="18.6522" transform="rotate(45.5 5.15409 397.446)" fill="#FAF9FF"/>
</g>
<rect x="78" y="257" width="172" height="56" rx="6" fill="#0D0823"/>
<path d="M110.94 290V278.24H113.212V290H110.94ZM118.076 290L114.492 284.912H117.036L120.732 290H118.076ZM112.54 286.096V284.256H115.516C115.932 284.256 116.289 284.171 116.588 284C116.897 283.829 117.137 283.589 117.308 283.28C117.479 282.971 117.564 282.619 117.564 282.224C117.564 281.819 117.479 281.461 117.308 281.152C117.137 280.843 116.897 280.603 116.588 280.432C116.289 280.261 115.932 280.176 115.516 280.176H112.54V278.24H115.276C116.215 278.24 117.025 278.379 117.708 278.656C118.401 278.933 118.935 279.355 119.308 279.92C119.681 280.485 119.868 281.195 119.868 282.048V282.304C119.868 283.168 119.676 283.877 119.292 284.432C118.919 284.987 118.391 285.403 117.708 285.68C117.025 285.957 116.215 286.096 115.276 286.096H112.54ZM126.011 290.304C125.265 290.304 124.609 290.176 124.043 289.92C123.489 289.664 123.025 289.323 122.651 288.896C122.289 288.459 122.011 287.973 121.819 287.44C121.638 286.907 121.547 286.363 121.547 285.808V285.504C121.547 284.928 121.638 284.373 121.819 283.84C122.011 283.296 122.289 282.816 122.651 282.4C123.025 281.973 123.483 281.637 124.027 281.392C124.571 281.136 125.201 281.008 125.915 281.008C126.854 281.008 127.638 281.216 128.267 281.632C128.907 282.037 129.387 282.576 129.707 283.248C130.027 283.909 130.187 284.624 130.187 285.392V286.192H122.491V284.832H128.795L128.107 285.504C128.107 284.949 128.027 284.475 127.867 284.08C127.707 283.685 127.462 283.381 127.131 283.168C126.811 282.955 126.406 282.848 125.915 282.848C125.425 282.848 125.009 282.96 124.667 283.184C124.326 283.408 124.065 283.733 123.883 284.16C123.713 284.576 123.627 285.077 123.627 285.664C123.627 286.208 123.713 286.693 123.883 287.12C124.054 287.536 124.315 287.867 124.667 288.112C125.019 288.347 125.467 288.464 126.011 288.464C126.555 288.464 126.998 288.357 127.339 288.144C127.681 287.92 127.899 287.648 127.995 287.328H130.043C129.915 287.925 129.67 288.448 129.307 288.896C128.945 289.344 128.481 289.691 127.915 289.936C127.361 290.181 126.726 290.304 126.011 290.304ZM135.437 293.424C135.021 293.424 134.595 293.408 134.157 293.376C133.731 293.344 133.331 293.301 132.957 293.248V291.392C133.341 291.435 133.752 291.472 134.189 291.504C134.627 291.547 135.037 291.568 135.421 291.568C136.136 291.568 136.712 291.483 137.149 291.312C137.597 291.141 137.923 290.869 138.125 290.496C138.339 290.133 138.445 289.669 138.445 289.104V287.392L138.925 286.304C138.893 287.104 138.728 287.787 138.429 288.352C138.131 288.907 137.725 289.333 137.213 289.632C136.701 289.92 136.109 290.064 135.437 290.064C134.84 290.064 134.296 289.952 133.805 289.728C133.325 289.504 132.909 289.195 132.557 288.8C132.216 288.405 131.949 287.941 131.757 287.408C131.565 286.875 131.469 286.304 131.469 285.696V285.36C131.469 284.752 131.565 284.187 131.757 283.664C131.96 283.131 132.243 282.667 132.605 282.272C132.968 281.877 133.4 281.573 133.901 281.36C134.403 281.147 134.957 281.04 135.565 281.04C136.28 281.04 136.899 281.195 137.421 281.504C137.955 281.813 138.371 282.261 138.669 282.848C138.968 283.435 139.133 284.155 139.165 285.008L138.781 285.072V281.312H140.541V288.976C140.541 290.032 140.36 290.885 139.997 291.536C139.635 292.187 139.075 292.661 138.317 292.96C137.571 293.269 136.611 293.424 135.437 293.424ZM136.077 288.16C136.504 288.16 136.893 288.064 137.245 287.872C137.597 287.68 137.88 287.403 138.093 287.04C138.307 286.677 138.413 286.24 138.413 285.728V285.168C138.413 284.677 138.301 284.261 138.077 283.92C137.864 283.579 137.581 283.323 137.229 283.152C136.877 282.971 136.493 282.88 136.077 282.88C135.608 282.88 135.192 282.992 134.829 283.216C134.477 283.429 134.2 283.733 133.997 284.128C133.795 284.523 133.693 284.992 133.693 285.536C133.693 286.069 133.795 286.533 133.997 286.928C134.2 287.323 134.477 287.627 134.829 287.84C135.192 288.053 135.608 288.16 136.077 288.16ZM143.383 290V281.312H145.607V290H143.383ZM142.167 282.976V281.312H145.607V282.976H142.167ZM144.199 280.272C143.762 280.272 143.436 280.16 143.223 279.936C143.02 279.701 142.919 279.413 142.919 279.072C142.919 278.709 143.02 278.416 143.223 278.192C143.436 277.968 143.762 277.856 144.199 277.856C144.636 277.856 144.956 277.968 145.159 278.192C145.362 278.416 145.463 278.709 145.463 279.072C145.463 279.413 145.362 279.701 145.159 279.936C144.956 280.16 144.636 280.272 144.199 280.272ZM151.322 290.272C150.128 290.272 149.189 290.021 148.506 289.52C147.834 289.008 147.482 288.304 147.45 287.408H149.45C149.482 287.707 149.648 287.979 149.946 288.224C150.245 288.469 150.714 288.592 151.354 288.592C151.888 288.592 152.309 288.496 152.618 288.304C152.938 288.112 153.098 287.851 153.098 287.52C153.098 287.232 152.976 287.003 152.73 286.832C152.496 286.661 152.09 286.549 151.514 286.496L150.746 286.416C149.776 286.309 149.029 286.032 148.506 285.584C147.984 285.136 147.722 284.539 147.722 283.792C147.722 283.195 147.872 282.693 148.17 282.288C148.469 281.883 148.88 281.579 149.402 281.376C149.936 281.163 150.544 281.056 151.226 281.056C152.293 281.056 153.157 281.291 153.818 281.76C154.48 282.229 154.826 282.917 154.858 283.824H152.858C152.837 283.525 152.688 283.269 152.41 283.056C152.133 282.843 151.733 282.736 151.21 282.736C150.741 282.736 150.378 282.827 150.122 283.008C149.866 283.189 149.738 283.424 149.738 283.712C149.738 283.989 149.84 284.203 150.042 284.352C150.256 284.501 150.597 284.603 151.066 284.656L151.834 284.736C152.858 284.843 153.658 285.125 154.234 285.584C154.821 286.043 155.114 286.661 155.114 287.44C155.114 288.016 154.954 288.517 154.634 288.944C154.325 289.36 153.888 289.685 153.322 289.92C152.757 290.155 152.09 290.272 151.322 290.272ZM160.728 290.112C159.928 290.112 159.266 290.011 158.744 289.808C158.232 289.595 157.848 289.243 157.592 288.752C157.336 288.251 157.208 287.579 157.208 286.736L157.224 278.864H159.304L159.288 286.88C159.288 287.307 159.4 287.637 159.624 287.872C159.858 288.096 160.189 288.208 160.616 288.208H161.976V290.112H160.728ZM155.832 282.944V281.312H161.976V282.944H155.832ZM167.683 290.304C166.937 290.304 166.281 290.176 165.715 289.92C165.161 289.664 164.697 289.323 164.323 288.896C163.961 288.459 163.683 287.973 163.491 287.44C163.31 286.907 163.219 286.363 163.219 285.808V285.504C163.219 284.928 163.31 284.373 163.491 283.84C163.683 283.296 163.961 282.816 164.323 282.4C164.697 281.973 165.155 281.637 165.699 281.392C166.243 281.136 166.873 281.008 167.587 281.008C168.526 281.008 169.31 281.216 169.939 281.632C170.579 282.037 171.059 282.576 171.379 283.248C171.699 283.909 171.859 284.624 171.859 285.392V286.192H164.163V284.832H170.467L169.779 285.504C169.779 284.949 169.699 284.475 169.539 284.08C169.379 283.685 169.134 283.381 168.803 283.168C168.483 282.955 168.078 282.848 167.587 282.848C167.097 282.848 166.681 282.96 166.339 283.184C165.998 283.408 165.737 283.733 165.555 284.16C165.385 284.576 165.299 285.077 165.299 285.664C165.299 286.208 165.385 286.693 165.555 287.12C165.726 287.536 165.987 287.867 166.339 288.112C166.691 288.347 167.139 288.464 167.683 288.464C168.227 288.464 168.67 288.357 169.011 288.144C169.353 287.92 169.571 287.648 169.667 287.328H171.715C171.587 287.925 171.342 288.448 170.979 288.896C170.617 289.344 170.153 289.691 169.587 289.936C169.033 290.181 168.398 290.304 167.683 290.304ZM173.717 290V281.312H175.477V284.992H175.429C175.429 283.744 175.696 282.8 176.229 282.16C176.762 281.52 177.546 281.2 178.581 281.2H178.901V283.136H178.293C177.546 283.136 176.965 283.339 176.549 283.744C176.144 284.139 175.941 284.715 175.941 285.472V290H173.717ZM183.842 290V281.312H185.602V285.04H185.442C185.442 284.155 185.559 283.419 185.794 282.832C186.029 282.235 186.375 281.787 186.834 281.488C187.303 281.189 187.885 281.04 188.578 281.04H188.674C189.709 281.04 190.493 281.376 191.026 282.048C191.559 282.709 191.826 283.701 191.826 285.024V290H189.602V284.832C189.602 284.299 189.447 283.867 189.138 283.536C188.839 283.205 188.423 283.04 187.89 283.04C187.346 283.04 186.903 283.211 186.562 283.552C186.231 283.883 186.066 284.331 186.066 284.896V290H183.842ZM198.393 290.304C197.625 290.304 196.948 290.181 196.361 289.936C195.774 289.691 195.278 289.36 194.873 288.944C194.468 288.517 194.158 288.037 193.945 287.504C193.742 286.971 193.641 286.416 193.641 285.84V285.504C193.641 284.907 193.748 284.341 193.961 283.808C194.185 283.264 194.5 282.784 194.905 282.368C195.321 281.941 195.822 281.611 196.409 281.376C196.996 281.131 197.657 281.008 198.393 281.008C199.129 281.008 199.79 281.131 200.377 281.376C200.964 281.611 201.46 281.941 201.865 282.368C202.281 282.784 202.596 283.264 202.809 283.808C203.022 284.341 203.129 284.907 203.129 285.504V285.84C203.129 286.416 203.022 286.971 202.809 287.504C202.606 288.037 202.302 288.517 201.897 288.944C201.492 289.36 200.996 289.691 200.409 289.936C199.822 290.181 199.15 290.304 198.393 290.304ZM198.393 288.4C198.937 288.4 199.396 288.283 199.769 288.048C200.142 287.803 200.425 287.477 200.617 287.072C200.809 286.656 200.905 286.187 200.905 285.664C200.905 285.131 200.804 284.661 200.601 284.256C200.409 283.84 200.121 283.515 199.737 283.28C199.364 283.035 198.916 282.912 198.393 282.912C197.87 282.912 197.417 283.035 197.033 283.28C196.66 283.515 196.372 283.84 196.169 284.256C195.966 284.661 195.865 285.131 195.865 285.664C195.865 286.187 195.961 286.656 196.153 287.072C196.356 287.477 196.644 287.803 197.017 288.048C197.39 288.283 197.849 288.4 198.393 288.4ZM207.865 290L209.513 281.6H212.073L213.977 290H212.217L210.281 281.648H211.209L209.497 290H207.865ZM207.209 290L207.193 288.176H208.969V290H207.209ZM206.313 290L203.945 281.312H206.105L208.361 290H206.313ZM212.777 290V288.176H214.553L214.537 290H212.777ZM213.481 290L215.481 281.312H217.497L215.401 290H213.481Z" fill="white"/>
<path d="M56.1491 123.608C54.0585 123.608 52.2345 123.267 50.6771 122.584C49.1198 121.88 47.8291 120.941 46.8051 119.768C45.8025 118.595 45.0558 117.293 44.5651 115.864C44.0745 114.435 43.8291 113.005 43.8291 111.576V110.872C43.8291 109.4 44.0745 107.96 44.5651 106.552C45.0558 105.144 45.7918 103.864 46.7731 102.712C47.7758 101.56 49.0131 100.643 50.4851 99.96C51.9785 99.2773 53.6958 98.936 55.6371 98.936C57.7491 98.936 59.6158 99.3307 61.2371 100.12C62.8585 100.888 64.1598 101.965 65.1411 103.352C66.1225 104.717 66.6878 106.307 66.8371 108.12H61.5891C61.4611 107.267 61.1198 106.52 60.5651 105.88C60.0318 105.24 59.3385 104.739 58.4851 104.376C57.6531 104.013 56.7038 103.832 55.6371 103.832C54.6131 103.832 53.6958 104.013 52.8851 104.376C52.0958 104.739 51.4131 105.251 50.8371 105.912C50.2825 106.573 49.8558 107.363 49.5571 108.28C49.2798 109.176 49.1411 110.168 49.1411 111.256C49.1411 112.387 49.2905 113.421 49.5891 114.36C49.9091 115.277 50.3678 116.077 50.9651 116.76C51.5625 117.421 52.2985 117.933 53.1731 118.296C54.0691 118.659 55.0611 118.84 56.1491 118.84C57.5998 118.84 58.8585 118.541 59.9251 117.944C60.9918 117.347 61.7598 116.557 62.2291 115.576L61.5891 119.16V113.592H66.4211V118.584C65.4185 120.205 64.0318 121.453 62.2611 122.328C60.5118 123.181 58.4745 123.608 56.1491 123.608ZM55.4771 114.616V110.84H68.3411V114.616H55.4771ZM79.4774 123.608C77.984 123.608 76.6614 123.352 75.5094 122.84C74.3787 122.328 73.4294 121.645 72.6614 120.792C71.9147 119.917 71.3387 118.947 70.9334 117.88C70.5494 116.792 70.3574 115.683 70.3574 114.552V113.912C70.3574 112.739 70.5494 111.619 70.9334 110.552C71.3387 109.464 71.9147 108.493 72.6614 107.64C73.408 106.787 74.336 106.115 75.4454 105.624C76.576 105.112 77.856 104.856 79.2854 104.856C81.1627 104.856 82.7414 105.283 84.0214 106.136C85.3227 106.968 86.3147 108.067 86.9974 109.432C87.68 110.776 88.0214 112.248 88.0214 113.848V115.576H72.5014V112.664H84.9174L83.2534 114.008C83.2534 112.963 83.104 112.067 82.8054 111.32C82.5067 110.573 82.0587 110.008 81.4614 109.624C80.8854 109.219 80.16 109.016 79.2854 109.016C78.3894 109.016 77.632 109.219 77.0134 109.624C76.3947 110.029 75.9254 110.627 75.6054 111.416C75.2854 112.184 75.1254 113.133 75.1254 114.264C75.1254 115.309 75.2747 116.227 75.5734 117.016C75.872 117.784 76.3414 118.381 76.9814 118.808C77.6214 119.235 78.4534 119.448 79.4774 119.448C80.416 119.448 81.184 119.267 81.7814 118.904C82.3787 118.541 82.784 118.093 82.9974 117.56H87.7014C87.4454 118.733 86.944 119.779 86.1974 120.696C85.4507 121.613 84.512 122.328 83.3814 122.84C82.2507 123.352 80.9494 123.608 79.4774 123.608ZM99.3821 123.224C97.6115 123.224 96.1821 123.011 95.0941 122.584C94.0061 122.136 93.2061 121.4 92.6941 120.376C92.2035 119.331 91.9581 117.923 91.9581 116.152V100.728H96.7261V116.344C96.7261 117.176 96.9395 117.816 97.3661 118.264C97.8141 118.691 98.4435 118.904 99.2541 118.904H101.846V123.224H99.3821ZM89.3021 109.208V105.464H101.846V109.208H89.3021ZM118.664 123.544C116.168 123.544 114.216 123.032 112.808 122.008C111.4 120.984 110.653 119.544 110.568 117.688H115.112C115.197 118.243 115.528 118.744 116.104 119.192C116.701 119.619 117.587 119.832 118.76 119.832C119.656 119.832 120.392 119.683 120.968 119.384C121.565 119.064 121.864 118.616 121.864 118.04C121.864 117.528 121.64 117.123 121.192 116.824C120.744 116.504 119.944 116.28 118.792 116.152L117.416 116.024C115.304 115.811 113.715 115.224 112.648 114.264C111.603 113.304 111.08 112.077 111.08 110.584C111.08 109.347 111.389 108.312 112.008 107.48C112.627 106.648 113.48 106.019 114.568 105.592C115.677 105.165 116.936 104.952 118.344 104.952C120.605 104.952 122.429 105.453 123.816 106.456C125.203 107.437 125.928 108.867 125.992 110.744H121.448C121.363 110.168 121.064 109.688 120.552 109.304C120.04 108.899 119.283 108.696 118.28 108.696C117.491 108.696 116.861 108.845 116.392 109.144C115.923 109.443 115.688 109.848 115.688 110.36C115.688 110.851 115.891 111.224 116.296 111.48C116.701 111.736 117.363 111.917 118.28 112.024L119.656 112.152C121.811 112.387 123.485 112.984 124.68 113.944C125.875 114.904 126.472 116.195 126.472 117.816C126.472 118.989 126.152 120.013 125.512 120.888C124.872 121.741 123.965 122.403 122.792 122.872C121.619 123.32 120.243 123.544 118.664 123.544ZM137.757 123.224C135.986 123.224 134.557 123.011 133.469 122.584C132.381 122.136 131.581 121.4 131.069 120.376C130.578 119.331 130.333 117.923 130.333 116.152V100.728H135.101V116.344C135.101 117.176 135.314 117.816 135.741 118.264C136.189 118.691 136.818 118.904 137.629 118.904H140.221V123.224H137.757ZM127.677 109.208V105.464H140.221V109.208H127.677ZM154.194 123V117.816H153.33V112.184C153.33 111.288 153.116 110.616 152.69 110.168C152.263 109.72 151.58 109.496 150.642 109.496C150.172 109.496 149.554 109.507 148.786 109.528C148.018 109.549 147.228 109.581 146.418 109.624C145.607 109.667 144.871 109.709 144.21 109.752V105.432C144.7 105.389 145.276 105.347 145.938 105.304C146.599 105.261 147.282 105.229 147.986 105.208C148.69 105.187 149.351 105.176 149.97 105.176C151.762 105.176 153.266 105.432 154.482 105.944C155.719 106.456 156.658 107.235 157.298 108.28C157.938 109.304 158.258 110.627 158.258 112.248V123H154.194ZM148.594 123.448C147.335 123.448 146.226 123.224 145.266 122.776C144.327 122.328 143.591 121.688 143.058 120.856C142.524 120.003 142.258 118.989 142.258 117.816C142.258 116.536 142.588 115.491 143.25 114.68C143.911 113.848 144.839 113.24 146.034 112.856C147.228 112.451 148.604 112.248 150.162 112.248H153.906V115.096H150.13C149.234 115.096 148.54 115.32 148.05 115.768C147.58 116.195 147.346 116.781 147.346 117.528C147.346 118.232 147.58 118.808 148.05 119.256C148.54 119.683 149.234 119.896 150.13 119.896C150.706 119.896 151.218 119.8 151.666 119.608C152.135 119.395 152.519 119.043 152.818 118.552C153.116 118.061 153.287 117.379 153.33 116.504L154.546 117.784C154.439 119 154.14 120.024 153.65 120.856C153.18 121.688 152.519 122.328 151.666 122.776C150.834 123.224 149.81 123.448 148.594 123.448ZM162.602 123V105.464H166.666V112.984H166.57C166.57 110.509 167.092 108.6 168.138 107.256C169.204 105.912 170.74 105.24 172.746 105.24H173.418V109.656H172.138C170.73 109.656 169.642 110.04 168.874 110.808C168.106 111.555 167.722 112.643 167.722 114.072V123H162.602ZM184.445 123.224C182.674 123.224 181.245 123.011 180.157 122.584C179.069 122.136 178.269 121.4 177.757 120.376C177.266 119.331 177.021 117.923 177.021 116.152V100.728H181.789V116.344C181.789 117.176 182.002 117.816 182.429 118.264C182.877 118.691 183.506 118.904 184.317 118.904H186.909V123.224H184.445ZM174.365 109.208V105.464H186.909V109.208H174.365ZM198.321 123.608C196.828 123.608 195.505 123.352 194.353 122.84C193.222 122.328 192.273 121.645 191.505 120.792C190.758 119.917 190.182 118.947 189.777 117.88C189.393 116.792 189.201 115.683 189.201 114.552V113.912C189.201 112.739 189.393 111.619 189.777 110.552C190.182 109.464 190.758 108.493 191.505 107.64C192.252 106.787 193.18 106.115 194.289 105.624C195.42 105.112 196.7 104.856 198.129 104.856C200.006 104.856 201.585 105.283 202.865 106.136C204.166 106.968 205.158 108.067 205.841 109.432C206.524 110.776 206.865 112.248 206.865 113.848V115.576H191.345V112.664H203.761L202.097 114.008C202.097 112.963 201.948 112.067 201.649 111.32C201.35 110.573 200.902 110.008 200.305 109.624C199.729 109.219 199.004 109.016 198.129 109.016C197.233 109.016 196.476 109.219 195.857 109.624C195.238 110.029 194.769 110.627 194.449 111.416C194.129 112.184 193.969 113.133 193.969 114.264C193.969 115.309 194.118 116.227 194.417 117.016C194.716 117.784 195.185 118.381 195.825 118.808C196.465 119.235 197.297 119.448 198.321 119.448C199.26 119.448 200.028 119.267 200.625 118.904C201.222 118.541 201.628 118.093 201.841 117.56H206.545C206.289 118.733 205.788 119.779 205.041 120.696C204.294 121.613 203.356 122.328 202.225 122.84C201.094 123.352 199.793 123.608 198.321 123.608ZM217.49 123.576C216.253 123.576 215.122 123.352 214.098 122.904C213.095 122.456 212.221 121.837 211.474 121.048C210.727 120.237 210.151 119.288 209.746 118.2C209.362 117.112 209.17 115.939 209.17 114.68V113.944C209.17 112.685 209.351 111.512 209.714 110.424C210.098 109.336 210.642 108.387 211.346 107.576C212.071 106.744 212.935 106.104 213.938 105.656C214.941 105.187 216.061 104.952 217.298 104.952C218.706 104.952 219.922 105.261 220.946 105.88C221.97 106.477 222.77 107.373 223.346 108.568C223.922 109.741 224.242 111.192 224.306 112.92L222.962 111.672V99.64H228.114V123H224.05V115.736H224.754C224.69 117.4 224.338 118.819 223.698 119.992C223.079 121.165 222.237 122.061 221.17 122.68C220.103 123.277 218.877 123.576 217.49 123.576ZM218.77 119.288C219.559 119.288 220.274 119.117 220.914 118.776C221.575 118.413 222.098 117.891 222.482 117.208C222.887 116.525 223.09 115.704 223.09 114.744V113.56C223.09 112.621 222.887 111.832 222.482 111.192C222.077 110.552 221.543 110.061 220.882 109.72C220.221 109.379 219.506 109.208 218.738 109.208C217.885 109.208 217.117 109.432 216.434 109.88C215.773 110.307 215.25 110.904 214.866 111.672C214.482 112.419 214.29 113.293 214.29 114.296C214.29 115.32 214.482 116.205 214.866 116.952C215.25 117.699 215.783 118.275 216.466 118.68C217.149 119.085 217.917 119.288 218.77 119.288ZM239.861 123V105.304C239.861 103.277 240.437 101.773 241.589 100.792C242.741 99.8107 244.437 99.32 246.677 99.32H248.917V103.16H246.453C245.877 103.16 245.429 103.32 245.109 103.64C244.789 103.96 244.629 104.408 244.629 104.984V123H239.861ZM237.781 109.56V105.816H249.173V109.56H237.781ZM260.177 123.608C258.641 123.608 257.276 123.373 256.081 122.904C254.886 122.413 253.873 121.752 253.041 120.92C252.23 120.088 251.612 119.139 251.185 118.072C250.758 116.984 250.545 115.843 250.545 114.648V113.912C250.545 112.696 250.758 111.544 251.185 110.456C251.633 109.347 252.273 108.376 253.105 107.544C253.958 106.712 254.982 106.061 256.177 105.592C257.372 105.101 258.705 104.856 260.177 104.856C261.692 104.856 263.036 105.101 264.209 105.592C265.404 106.061 266.417 106.712 267.249 107.544C268.081 108.376 268.721 109.347 269.169 110.456C269.617 111.544 269.841 112.696 269.841 113.912V114.648C269.841 115.843 269.628 116.984 269.201 118.072C268.774 119.139 268.145 120.088 267.313 120.92C266.502 121.752 265.5 122.413 264.305 122.904C263.11 123.373 261.734 123.608 260.177 123.608ZM260.177 119.288C261.18 119.288 262.012 119.075 262.673 118.648C263.334 118.221 263.836 117.624 264.177 116.856C264.54 116.088 264.721 115.235 264.721 114.296C264.721 113.293 264.54 112.419 264.177 111.672C263.814 110.904 263.292 110.296 262.609 109.848C261.948 109.4 261.137 109.176 260.177 109.176C259.238 109.176 258.428 109.4 257.745 109.848C257.062 110.296 256.54 110.904 256.177 111.672C255.836 112.419 255.665 113.293 255.665 114.296C255.665 115.235 255.836 116.088 256.177 116.856C256.518 117.624 257.03 118.221 257.713 118.648C258.396 119.075 259.217 119.288 260.177 119.288ZM273.414 123V105.464H277.478V112.984H277.382C277.382 110.509 277.905 108.6 278.95 107.256C280.017 105.912 281.553 105.24 283.558 105.24H284.23V109.656H282.95C281.542 109.656 280.454 110.04 279.686 110.808C278.918 111.555 278.534 112.643 278.534 114.072V123H273.414ZM162.382 168.224C160.611 168.224 159.182 168.011 158.094 167.584C157.006 167.136 156.206 166.4 155.694 165.376C155.203 164.331 154.958 162.923 154.958 161.152V145.728H159.726V161.344C159.726 162.176 159.939 162.816 160.366 163.264C160.814 163.691 161.443 163.904 162.254 163.904H164.846V168.224H162.382ZM152.302 154.208V150.464H164.846V154.208H152.302ZM176.771 168.608C175.235 168.608 173.869 168.373 172.675 167.904C171.48 167.413 170.467 166.752 169.635 165.92C168.824 165.088 168.205 164.139 167.779 163.072C167.352 161.984 167.139 160.843 167.139 159.648V158.912C167.139 157.696 167.352 156.544 167.779 155.456C168.227 154.347 168.867 153.376 169.699 152.544C170.552 151.712 171.576 151.061 172.771 150.592C173.965 150.101 175.299 149.856 176.771 149.856C178.285 149.856 179.629 150.101 180.803 150.592C181.997 151.061 183.011 151.712 183.843 152.544C184.675 153.376 185.315 154.347 185.763 155.456C186.211 156.544 186.435 157.696 186.435 158.912V159.648C186.435 160.843 186.221 161.984 185.795 163.072C185.368 164.139 184.739 165.088 183.907 165.92C183.096 166.752 182.093 167.413 180.899 167.904C179.704 168.373 178.328 168.608 176.771 168.608ZM176.771 164.288C177.773 164.288 178.605 164.075 179.267 163.648C179.928 163.221 180.429 162.624 180.771 161.856C181.133 161.088 181.315 160.235 181.315 159.296C181.315 158.293 181.133 157.419 180.771 156.672C180.408 155.904 179.885 155.296 179.203 154.848C178.541 154.4 177.731 154.176 176.771 154.176C175.832 154.176 175.021 154.4 174.339 154.848C173.656 155.296 173.133 155.904 172.771 156.672C172.429 157.419 172.259 158.293 172.259 159.296C172.259 160.235 172.429 161.088 172.771 161.856C173.112 162.624 173.624 163.221 174.307 163.648C174.989 164.075 175.811 164.288 176.771 164.288ZM197.24 168.576C196.003 168.576 194.872 168.352 193.848 167.904C192.845 167.456 191.971 166.837 191.224 166.048C190.477 165.237 189.901 164.288 189.496 163.2C189.112 162.112 188.92 160.939 188.92 159.68V158.944C188.92 157.685 189.101 156.512 189.464 155.424C189.848 154.336 190.392 153.387 191.096 152.576C191.821 151.744 192.685 151.104 193.688 150.656C194.691 150.187 195.811 149.952 197.048 149.952C198.456 149.952 199.672 150.261 200.696 150.88C201.72 151.477 202.52 152.373 203.096 153.568C203.672 154.741 203.992 156.192 204.056 157.92L202.712 156.672V144.64H207.864V168H203.8V160.736H204.504C204.44 162.4 204.088 163.819 203.448 164.992C202.829 166.165 201.987 167.061 200.92 167.68C199.853 168.277 198.627 168.576 197.24 168.576ZM198.52 164.288C199.309 164.288 200.024 164.117 200.664 163.776C201.325 163.413 201.848 162.891 202.232 162.208C202.637 161.525 202.84 160.704 202.84 159.744V158.56C202.84 157.621 202.637 156.832 202.232 156.192C201.827 155.552 201.293 155.061 200.632 154.72C199.971 154.379 199.256 154.208 198.488 154.208C197.635 154.208 196.867 154.432 196.184 154.88C195.523 155.307 195 155.904 194.616 156.672C194.232 157.419 194.04 158.293 194.04 159.296C194.04 160.32 194.232 161.205 194.616 161.952C195 162.699 195.533 163.275 196.216 163.68C196.899 164.085 197.667 164.288 198.52 164.288ZM223.1 168V162.816H222.236V157.184C222.236 156.288 222.023 155.616 221.596 155.168C221.169 154.72 220.487 154.496 219.548 154.496C219.079 154.496 218.46 154.507 217.692 154.528C216.924 154.549 216.135 154.581 215.324 154.624C214.513 154.667 213.777 154.709 213.116 154.752V150.432C213.607 150.389 214.183 150.347 214.844 150.304C215.505 150.261 216.188 150.229 216.892 150.208C217.596 150.187 218.257 150.176 218.876 150.176C220.668 150.176 222.172 150.432 223.388 150.944C224.625 151.456 225.564 152.235 226.204 153.28C226.844 154.304 227.164 155.627 227.164 157.248V168H223.1ZM217.5 168.448C216.241 168.448 215.132 168.224 214.172 167.776C213.233 167.328 212.497 166.688 211.964 165.856C211.431 165.003 211.164 163.989 211.164 162.816C211.164 161.536 211.495 160.491 212.156 159.68C212.817 158.848 213.745 158.24 214.94 157.856C216.135 157.451 217.511 157.248 219.068 157.248H222.812V160.096H219.036C218.14 160.096 217.447 160.32 216.956 160.768C216.487 161.195 216.252 161.781 216.252 162.528C216.252 163.232 216.487 163.808 216.956 164.256C217.447 164.683 218.14 164.896 219.036 164.896C219.612 164.896 220.124 164.8 220.572 164.608C221.041 164.395 221.425 164.043 221.724 163.552C222.023 163.061 222.193 162.379 222.236 161.504L223.452 162.784C223.345 164 223.047 165.024 222.556 165.856C222.087 166.688 221.425 167.328 220.572 167.776C219.74 168.224 218.716 168.448 217.5 168.448ZM231.003 174.944V170.592H234.651C235.206 170.592 235.675 170.517 236.059 170.368C236.443 170.24 236.753 170.016 236.987 169.696C237.222 169.376 237.414 168.939 237.563 168.384L241.883 150.464H246.747L241.851 169.408C241.51 170.773 241.03 171.861 240.411 172.672C239.814 173.483 239.003 174.059 237.979 174.4C236.977 174.763 235.697 174.944 234.139 174.944H231.003ZM236.507 167.616V163.616H240.219V167.616H236.507ZM234.395 167.616L229.019 150.464H234.171L239.259 167.616H234.395Z" fill="white"/>
<path d="M82.6106 168V150.304C82.6106 148.277 83.1866 146.773 84.3386 145.792C85.4906 144.811 87.1866 144.32 89.4266 144.32H91.6666V148.16H89.2026C88.6266 148.16 88.1786 148.32 87.8586 148.64C87.5386 148.96 87.3786 149.408 87.3786 149.984V168H82.6106ZM80.5306 154.56V150.816H91.9226V154.56H80.5306ZM94.3829 168V150.464H98.4469V157.984H98.3509C98.3509 155.509 98.8735 153.6 99.9189 152.256C100.986 150.912 102.522 150.24 104.527 150.24H105.199V154.656H103.919C102.511 154.656 101.423 155.04 100.655 155.808C99.8869 156.555 99.5029 157.643 99.5029 159.072V168H94.3829ZM115.79 168.608C114.297 168.608 112.974 168.352 111.822 167.84C110.691 167.328 109.742 166.645 108.974 165.792C108.227 164.917 107.651 163.947 107.246 162.88C106.862 161.792 106.67 160.683 106.67 159.552V158.912C106.67 157.739 106.862 156.619 107.246 155.552C107.651 154.464 108.227 153.493 108.974 152.64C109.721 151.787 110.649 151.115 111.758 150.624C112.889 150.112 114.169 149.856 115.598 149.856C117.475 149.856 119.054 150.283 120.334 151.136C121.635 151.968 122.627 153.067 123.31 154.432C123.993 155.776 124.334 157.248 124.334 158.848V160.576H108.814V157.664H121.23L119.566 159.008C119.566 157.963 119.417 157.067 119.118 156.32C118.819 155.573 118.371 155.008 117.774 154.624C117.198 154.219 116.473 154.016 115.598 154.016C114.702 154.016 113.945 154.219 113.326 154.624C112.707 155.029 112.238 155.627 111.918 156.416C111.598 157.184 111.438 158.133 111.438 159.264C111.438 160.309 111.587 161.227 111.886 162.016C112.185 162.784 112.654 163.381 113.294 163.808C113.934 164.235 114.766 164.448 115.79 164.448C116.729 164.448 117.497 164.267 118.094 163.904C118.691 163.541 119.097 163.093 119.31 162.56H124.014C123.758 163.733 123.257 164.779 122.51 165.696C121.763 166.613 120.825 167.328 119.694 167.84C118.563 168.352 117.262 168.608 115.79 168.608ZM135.759 168.608C134.265 168.608 132.943 168.352 131.791 167.84C130.66 167.328 129.711 166.645 128.943 165.792C128.196 164.917 127.62 163.947 127.215 162.88C126.831 161.792 126.639 160.683 126.639 159.552V158.912C126.639 157.739 126.831 156.619 127.215 155.552C127.62 154.464 128.196 153.493 128.943 152.64C129.689 151.787 130.617 151.115 131.727 150.624C132.857 150.112 134.137 149.856 135.567 149.856C137.444 149.856 139.023 150.283 140.303 151.136C141.604 151.968 142.596 153.067 143.279 154.432C143.961 155.776 144.303 157.248 144.303 158.848V160.576H128.783V157.664H141.199L139.535 159.008C139.535 157.963 139.385 157.067 139.087 156.32C138.788 155.573 138.34 155.008 137.743 154.624C137.167 154.219 136.441 154.016 135.567 154.016C134.671 154.016 133.913 154.219 133.295 154.624C132.676 155.029 132.207 155.627 131.887 156.416C131.567 157.184 131.407 158.133 131.407 159.264C131.407 160.309 131.556 161.227 131.855 162.016C132.153 162.784 132.623 163.381 133.263 163.808C133.903 164.235 134.735 164.448 135.759 164.448C136.697 164.448 137.465 164.267 138.063 163.904C138.66 163.541 139.065 163.093 139.279 162.56H143.983C143.727 163.733 143.225 164.779 142.479 165.696C141.732 166.613 140.793 167.328 139.663 167.84C138.532 168.352 137.231 168.608 135.759 168.608Z" fill="#FFA551"/>
</g>
<defs>
<linearGradient id="paint0_linear_854_1497" x1="0" y1="0" x2="373.977" y2="48.9841" gradientUnits="userSpaceOnUse">
<stop stop-color="#6C52E3"/>
<stop offset="1" stop-color="#E84D96"/>
</linearGradient>
<clipPath id="clip0_854_1497">
<path d="M0 50C0 22.3858 22.3858 0 50 0H322C325.314 0 328 2.68629 328 6V350C328 377.614 305.614 400 278 400H5.99999C2.68629 400 0 397.314 0 394V50Z" fill="white"/>
</clipPath>
</defs>
</svg>
