<svg width="854" height="147" viewBox="0 0 854 147" fill="none" xmlns="http://www.w3.org/2000/svg">
<circle cx="56" cy="40" r="40" fill="#0D0823"/>
<path d="M17.5752 116.342C16.3872 116.342 15.3672 116.132 14.5152 115.712C13.6632 115.292 12.9672 114.746 12.4272 114.074C11.8992 113.402 11.5092 112.67 11.2572 111.878C11.0052 111.086 10.8792 110.324 10.8792 109.592V109.196C10.8792 108.38 11.0052 107.576 11.2572 106.784C11.5212 105.992 11.9232 105.272 12.4632 104.624C13.0032 103.976 13.6872 103.46 14.5152 103.076C15.3552 102.68 16.3452 102.482 17.4852 102.482C18.6732 102.482 19.7052 102.698 20.5812 103.13C21.4692 103.55 22.1772 104.15 22.7052 104.93C23.2332 105.698 23.5512 106.598 23.6592 107.63H21.0852C20.9892 107.03 20.7732 106.526 20.4372 106.118C20.1132 105.698 19.6992 105.386 19.1952 105.182C18.6912 104.966 18.1212 104.858 17.4852 104.858C16.8372 104.858 16.2612 104.972 15.7572 105.2C15.2532 105.416 14.8332 105.728 14.4972 106.136C14.1612 106.544 13.9032 107.024 13.7232 107.576C13.5552 108.128 13.4712 108.74 13.4712 109.412C13.4712 110.06 13.5552 110.66 13.7232 111.212C13.9032 111.764 14.1672 112.25 14.5152 112.67C14.8632 113.078 15.2892 113.396 15.7932 113.624C16.3092 113.852 16.9032 113.966 17.5752 113.966C18.5592 113.966 19.3872 113.726 20.0592 113.246C20.7432 112.754 21.1572 112.07 21.3012 111.194H23.8752C23.7552 112.13 23.4372 112.988 22.9212 113.768C22.4052 114.548 21.6972 115.172 20.7972 115.64C19.8972 116.108 18.8232 116.342 17.5752 116.342ZM29.1641 116.306C28.0361 116.306 27.1601 115.934 26.5361 115.19C25.9241 114.446 25.6181 113.342 25.6181 111.878V106.208H28.1201V112.094C28.1201 112.694 28.2881 113.174 28.6241 113.534C28.9601 113.882 29.4161 114.056 29.9921 114.056C30.5681 114.056 31.0361 113.87 31.3961 113.498C31.7681 113.126 31.9541 112.622 31.9541 111.986V106.208H34.4561V116H32.4761V111.842H32.6741C32.6741 112.826 32.5481 113.648 32.2961 114.308C32.0441 114.968 31.6661 115.466 31.1621 115.802C30.6581 116.138 30.0281 116.306 29.2721 116.306H29.1641ZM40.8762 116.306C39.5322 116.306 38.4762 116.024 37.7082 115.46C36.9522 114.884 36.5562 114.092 36.5202 113.084H38.7702C38.8062 113.42 38.9922 113.726 39.3282 114.002C39.6642 114.278 40.1922 114.416 40.9122 114.416C41.5122 114.416 41.9862 114.308 42.3342 114.092C42.6942 113.876 42.8742 113.582 42.8742 113.21C42.8742 112.886 42.7362 112.628 42.4602 112.436C42.1962 112.244 41.7402 112.118 41.0922 112.058L40.2282 111.968C39.1362 111.848 38.2962 111.536 37.7082 111.032C37.1202 110.528 36.8262 109.856 36.8262 109.016C36.8262 108.344 36.9942 107.78 37.3302 107.324C37.6662 106.868 38.1282 106.526 38.7162 106.298C39.3162 106.058 40.0002 105.938 40.7682 105.938C41.9682 105.938 42.9402 106.202 43.6842 106.73C44.4282 107.258 44.8182 108.032 44.8542 109.052H42.6042C42.5802 108.716 42.4122 108.428 42.1002 108.188C41.7882 107.948 41.3382 107.828 40.7502 107.828C40.2222 107.828 39.8142 107.93 39.5262 108.134C39.2382 108.338 39.0942 108.602 39.0942 108.926C39.0942 109.238 39.2082 109.478 39.4362 109.646C39.6762 109.814 40.0602 109.928 40.5882 109.988L41.4522 110.078C42.6042 110.198 43.5042 110.516 44.1522 111.032C44.8122 111.548 45.1422 112.244 45.1422 113.12C45.1422 113.768 44.9622 114.332 44.6022 114.812C44.2542 115.28 43.7622 115.646 43.1262 115.91C42.4902 116.174 41.7402 116.306 40.8762 116.306ZM51.4571 116.126C50.5571 116.126 49.8131 116.012 49.2251 115.784C48.6491 115.544 48.2171 115.148 47.9291 114.596C47.6411 114.032 47.4971 113.276 47.4971 112.328L47.5151 103.472H49.8551L49.8371 112.49C49.8371 112.97 49.9631 113.342 50.2151 113.606C50.4791 113.858 50.8511 113.984 51.3311 113.984H52.8611V116.126H51.4571ZM45.9491 108.062V106.226H52.8611V108.062H45.9491ZM59.6063 116.342C58.7423 116.342 57.9803 116.204 57.3203 115.928C56.6603 115.652 56.1023 115.28 55.6463 114.812C55.1903 114.332 54.8423 113.792 54.6023 113.192C54.3743 112.592 54.2603 111.968 54.2603 111.32V110.942C54.2603 110.27 54.3803 109.634 54.6203 109.034C54.8723 108.422 55.2263 107.882 55.6823 107.414C56.1503 106.934 56.7143 106.562 57.3743 106.298C58.0343 106.022 58.7783 105.884 59.6063 105.884C60.4343 105.884 61.1783 106.022 61.8383 106.298C62.4983 106.562 63.0563 106.934 63.5123 107.414C63.9803 107.882 64.3343 108.422 64.5743 109.034C64.8143 109.634 64.9343 110.27 64.9343 110.942V111.32C64.9343 111.968 64.8143 112.592 64.5743 113.192C64.3463 113.792 64.0043 114.332 63.5483 114.812C63.0923 115.28 62.5343 115.652 61.8743 115.928C61.2143 116.204 60.4583 116.342 59.6063 116.342ZM59.6063 114.2C60.2183 114.2 60.7343 114.068 61.1543 113.804C61.5743 113.528 61.8923 113.162 62.1083 112.706C62.3243 112.238 62.4323 111.71 62.4323 111.122C62.4323 110.522 62.3183 109.994 62.0903 109.538C61.8743 109.07 61.5503 108.704 61.1183 108.44C60.6983 108.164 60.1943 108.026 59.6063 108.026C59.0183 108.026 58.5083 108.164 58.0763 108.44C57.6563 108.704 57.3323 109.07 57.1043 109.538C56.8763 109.994 56.7623 110.522 56.7623 111.122C56.7623 111.71 56.8703 112.238 57.0863 112.706C57.3143 113.162 57.6383 113.528 58.0583 113.804C58.4783 114.068 58.9943 114.2 59.6063 114.2ZM67.1251 116V106.226H69.1051V110.42H68.9251C68.9251 109.436 69.0511 108.614 69.3031 107.954C69.5551 107.282 69.9271 106.778 70.4191 106.442C70.9231 106.094 71.5471 105.92 72.2911 105.92H72.3991C73.1551 105.92 73.7791 106.094 74.2711 106.442C74.7751 106.778 75.1471 107.282 75.3871 107.954C75.6391 108.614 75.7651 109.436 75.7651 110.42H75.1351C75.1351 109.436 75.2611 108.614 75.5131 107.954C75.7771 107.282 76.1551 106.778 76.6471 106.442C77.1511 106.094 77.7751 105.92 78.5191 105.92H78.6271C79.3831 105.92 80.0131 106.094 80.5171 106.442C81.0211 106.778 81.3991 107.282 81.6511 107.954C81.9151 108.614 82.0471 109.436 82.0471 110.42V116H79.5451V110.186C79.5451 109.574 79.3891 109.088 79.0771 108.728C78.7651 108.356 78.3211 108.17 77.7451 108.17C77.1691 108.17 76.7071 108.362 76.3591 108.746C76.0111 109.118 75.8371 109.622 75.8371 110.258V116H73.3351V110.186C73.3351 109.574 73.1791 109.088 72.8671 108.728C72.5551 108.356 72.1111 108.17 71.5351 108.17C70.9591 108.17 70.4971 108.362 70.1491 108.746C69.8011 109.118 69.6271 109.622 69.6271 110.258V116H67.1251ZM89.0948 116.342C88.2548 116.342 87.5168 116.198 86.8808 115.91C86.2568 115.622 85.7348 115.238 85.3148 114.758C84.9068 114.266 84.5948 113.72 84.3788 113.12C84.1748 112.52 84.0728 111.908 84.0728 111.284V110.942C84.0728 110.294 84.1748 109.67 84.3788 109.07C84.5948 108.458 84.9068 107.918 85.3148 107.45C85.7348 106.97 86.2508 106.592 86.8628 106.316C87.4748 106.028 88.1828 105.884 88.9868 105.884C90.0428 105.884 90.9248 106.118 91.6328 106.586C92.3528 107.042 92.8928 107.648 93.2528 108.404C93.6128 109.148 93.7928 109.952 93.7928 110.816V111.716H85.1348V110.186H92.2268L91.4528 110.942C91.4528 110.318 91.3628 109.784 91.1828 109.34C91.0028 108.896 90.7268 108.554 90.3548 108.314C89.9948 108.074 89.5388 107.954 88.9868 107.954C88.4348 107.954 87.9668 108.08 87.5828 108.332C87.1988 108.584 86.9048 108.95 86.7008 109.43C86.5088 109.898 86.4128 110.462 86.4128 111.122C86.4128 111.734 86.5088 112.28 86.7008 112.76C86.8928 113.228 87.1868 113.6 87.5828 113.876C87.9788 114.14 88.4828 114.272 89.0948 114.272C89.7068 114.272 90.2048 114.152 90.5888 113.912C90.9728 113.66 91.2188 113.354 91.3268 112.994H93.6308C93.4868 113.666 93.2108 114.254 92.8028 114.758C92.3948 115.262 91.8728 115.652 91.2368 115.928C90.6128 116.204 89.8988 116.342 89.0948 116.342ZM95.8829 116V106.226H97.8629V110.366H97.8089C97.8089 108.962 98.1089 107.9 98.7089 107.18C99.3089 106.46 100.191 106.1 101.355 106.1H101.715V108.278H101.031C100.191 108.278 99.5369 108.506 99.0689 108.962C98.6129 109.406 98.3849 110.054 98.3849 110.906V116H95.8829ZM6.06294 143.342C4.89894 143.342 3.91494 143.156 3.11094 142.784C2.31894 142.412 1.71294 141.902 1.29294 141.254C0.872938 140.594 0.662938 139.85 0.662938 139.022H3.16494C3.16494 139.37 3.26094 139.712 3.45294 140.048C3.64494 140.372 3.95094 140.636 4.37094 140.84C4.80294 141.044 5.36694 141.146 6.06294 141.146C6.68694 141.146 7.20894 141.056 7.62894 140.876C8.04894 140.696 8.36094 140.462 8.56494 140.174C8.76894 139.874 8.87094 139.538 8.87094 139.166C8.87094 138.698 8.67294 138.326 8.27694 138.05C7.88094 137.762 7.26894 137.582 6.44094 137.51L5.28894 137.42C4.02894 137.312 3.02094 136.922 2.26494 136.25C1.52094 135.566 1.14894 134.666 1.14894 133.55C1.14894 132.71 1.34694 131.99 1.74294 131.39C2.13894 130.778 2.69094 130.31 3.39894 129.986C4.11894 129.65 4.95894 129.482 5.91894 129.482C6.91494 129.482 7.77294 129.656 8.49294 130.004C9.21294 130.352 9.77094 130.844 10.1669 131.48C10.5629 132.104 10.7609 132.842 10.7609 133.694H8.25894C8.25894 133.334 8.16894 133.004 7.98894 132.704C7.82094 132.392 7.56294 132.146 7.21494 131.966C6.87894 131.774 6.44694 131.678 5.91894 131.678C5.41494 131.678 4.99494 131.762 4.65894 131.93C4.32294 132.098 4.07094 132.326 3.90294 132.614C3.73494 132.902 3.65094 133.214 3.65094 133.55C3.65094 133.958 3.80094 134.318 4.10094 134.63C4.40094 134.93 4.87494 135.104 5.52294 135.152L6.67494 135.26C7.61094 135.332 8.43294 135.53 9.14094 135.854C9.84894 136.178 10.3949 136.616 10.7789 137.168C11.1749 137.72 11.3729 138.386 11.3729 139.166C11.3729 139.994 11.1569 140.726 10.7249 141.362C10.2929 141.986 9.67494 142.472 8.87094 142.82C8.07894 143.168 7.14294 143.342 6.06294 143.342ZM19.4338 143V140.102H19.0198V136.88C19.0198 136.316 18.8818 135.896 18.6058 135.62C18.3298 135.344 17.9038 135.206 17.3278 135.206C17.0278 135.206 16.6678 135.212 16.2478 135.224C15.8278 135.236 15.4018 135.254 14.9698 135.278C14.5498 135.29 14.1718 135.308 13.8358 135.332V133.208C14.1118 133.184 14.4238 133.16 14.7718 133.136C15.1198 133.112 15.4738 133.1 15.8338 133.1C16.2058 133.088 16.5538 133.082 16.8778 133.082C17.8858 133.082 18.7198 133.214 19.3798 133.478C20.0518 133.742 20.5558 134.156 20.8918 134.72C21.2398 135.284 21.4138 136.022 21.4138 136.934V143H19.4338ZM16.2838 143.252C15.5758 143.252 14.9518 143.126 14.4118 142.874C13.8838 142.622 13.4698 142.262 13.1698 141.794C12.8818 141.326 12.7378 140.762 12.7378 140.102C12.7378 139.382 12.9118 138.794 13.2598 138.338C13.6198 137.882 14.1178 137.54 14.7538 137.312C15.4018 137.084 16.1578 136.97 17.0218 136.97H19.2898V138.464H16.9858C16.4098 138.464 15.9658 138.608 15.6538 138.896C15.3538 139.172 15.2038 139.532 15.2038 139.976C15.2038 140.42 15.3538 140.78 15.6538 141.056C15.9658 141.332 16.4098 141.47 16.9858 141.47C17.3338 141.47 17.6518 141.41 17.9398 141.29C18.2398 141.158 18.4858 140.942 18.6778 140.642C18.8818 140.33 18.9958 139.91 19.0198 139.382L19.6318 140.084C19.5718 140.768 19.4038 141.344 19.1278 141.812C18.8638 142.28 18.4918 142.64 18.0118 142.892C17.5438 143.132 16.9678 143.252 16.2838 143.252ZM28.3419 143.126C27.4419 143.126 26.6979 143.012 26.1099 142.784C25.5339 142.544 25.1019 142.148 24.8139 141.596C24.5259 141.032 24.3819 140.276 24.3819 139.328L24.3999 130.472H26.7399L26.7219 139.49C26.7219 139.97 26.8479 140.342 27.0999 140.606C27.3639 140.858 27.7359 140.984 28.2159 140.984H29.7459V143.126H28.3419ZM22.8339 135.062V133.226H29.7459V135.062H22.8339ZM32.3138 143V133.226H34.8158V143H32.3138ZM30.9458 135.098V133.226H34.8158V135.098H30.9458ZM33.2318 132.056C32.7398 132.056 32.3738 131.93 32.1338 131.678C31.9058 131.414 31.7918 131.09 31.7918 130.706C31.7918 130.298 31.9058 129.968 32.1338 129.716C32.3738 129.464 32.7398 129.338 33.2318 129.338C33.7238 129.338 34.0838 129.464 34.3118 129.716C34.5398 129.968 34.6538 130.298 34.6538 130.706C34.6538 131.09 34.5398 131.414 34.3118 131.678C34.0838 131.93 33.7238 132.056 33.2318 132.056ZM41.2453 143.306C39.9013 143.306 38.8453 143.024 38.0773 142.46C37.3213 141.884 36.9253 141.092 36.8893 140.084H39.1393C39.1753 140.42 39.3613 140.726 39.6973 141.002C40.0333 141.278 40.5613 141.416 41.2813 141.416C41.8813 141.416 42.3553 141.308 42.7033 141.092C43.0633 140.876 43.2433 140.582 43.2433 140.21C43.2433 139.886 43.1053 139.628 42.8293 139.436C42.5653 139.244 42.1093 139.118 41.4613 139.058L40.5973 138.968C39.5053 138.848 38.6653 138.536 38.0773 138.032C37.4893 137.528 37.1953 136.856 37.1953 136.016C37.1953 135.344 37.3633 134.78 37.6993 134.324C38.0353 133.868 38.4973 133.526 39.0853 133.298C39.6853 133.058 40.3693 132.938 41.1373 132.938C42.3373 132.938 43.3093 133.202 44.0533 133.73C44.7973 134.258 45.1873 135.032 45.2233 136.052H42.9733C42.9493 135.716 42.7813 135.428 42.4693 135.188C42.1573 134.948 41.7073 134.828 41.1193 134.828C40.5913 134.828 40.1833 134.93 39.8953 135.134C39.6073 135.338 39.4633 135.602 39.4633 135.926C39.4633 136.238 39.5773 136.478 39.8053 136.646C40.0453 136.814 40.4293 136.928 40.9573 136.988L41.8213 137.078C42.9733 137.198 43.8733 137.516 44.5213 138.032C45.1813 138.548 45.5113 139.244 45.5113 140.12C45.5113 140.768 45.3313 141.332 44.9713 141.812C44.6233 142.28 44.1313 142.646 43.4953 142.91C42.8593 143.174 42.1093 143.306 41.2453 143.306ZM47.8123 143V132.992C47.8123 131.876 48.1183 131.054 48.7303 130.526C49.3543 129.986 50.2723 129.716 51.4843 129.716H52.7083V131.642H51.3043C50.9323 131.642 50.6443 131.744 50.4403 131.948C50.2483 132.14 50.1523 132.416 50.1523 132.776V143H47.8123ZM46.5883 135.224V133.388H52.8703V135.224H46.5883ZM60.3206 143V140.102H59.9066V136.88C59.9066 136.316 59.7686 135.896 59.4926 135.62C59.2166 135.344 58.7906 135.206 58.2146 135.206C57.9146 135.206 57.5546 135.212 57.1346 135.224C56.7146 135.236 56.2886 135.254 55.8566 135.278C55.4366 135.29 55.0586 135.308 54.7226 135.332V133.208C54.9986 133.184 55.3106 133.16 55.6586 133.136C56.0066 133.112 56.3606 133.1 56.7206 133.1C57.0926 133.088 57.4406 133.082 57.7646 133.082C58.7726 133.082 59.6066 133.214 60.2666 133.478C60.9386 133.742 61.4426 134.156 61.7786 134.72C62.1266 135.284 62.3006 136.022 62.3006 136.934V143H60.3206ZM57.1706 143.252C56.4626 143.252 55.8386 143.126 55.2986 142.874C54.7706 142.622 54.3566 142.262 54.0566 141.794C53.7686 141.326 53.6246 140.762 53.6246 140.102C53.6246 139.382 53.7986 138.794 54.1466 138.338C54.5066 137.882 55.0046 137.54 55.6406 137.312C56.2886 137.084 57.0446 136.97 57.9086 136.97H60.1766V138.464H57.8726C57.2966 138.464 56.8526 138.608 56.5406 138.896C56.2406 139.172 56.0906 139.532 56.0906 139.976C56.0906 140.42 56.2406 140.78 56.5406 141.056C56.8526 141.332 57.2966 141.47 57.8726 141.47C58.2206 141.47 58.5386 141.41 58.8266 141.29C59.1266 141.158 59.3726 140.942 59.5646 140.642C59.7686 140.33 59.8826 139.91 59.9066 139.382L60.5186 140.084C60.4586 140.768 60.2906 141.344 60.0146 141.812C59.7506 142.28 59.3786 142.64 58.8986 142.892C58.4306 143.132 57.8546 143.252 57.1706 143.252ZM69.3186 143.342C68.4666 143.342 67.7286 143.198 67.1046 142.91C66.4926 142.622 65.9766 142.238 65.5566 141.758C65.1486 141.278 64.8426 140.738 64.6386 140.138C64.4346 139.538 64.3326 138.926 64.3326 138.302V137.96C64.3326 137.3 64.4346 136.67 64.6386 136.07C64.8546 135.458 65.1726 134.918 65.5926 134.45C66.0126 133.97 66.5286 133.592 67.1406 133.316C67.7646 133.028 68.4846 132.884 69.3006 132.884C70.1526 132.884 70.9146 133.052 71.5866 133.388C72.2586 133.712 72.7926 134.168 73.1886 134.756C73.5966 135.344 73.8246 136.028 73.8726 136.808H71.4426C71.3826 136.304 71.1666 135.884 70.7946 135.548C70.4346 135.212 69.9366 135.044 69.3006 135.044C68.7486 135.044 68.2866 135.176 67.9146 135.44C67.5546 135.704 67.2846 136.07 67.1046 136.538C66.9246 136.994 66.8346 137.522 66.8346 138.122C66.8346 138.698 66.9186 139.22 67.0866 139.688C67.2666 140.156 67.5366 140.522 67.8966 140.786C68.2686 141.05 68.7426 141.182 69.3186 141.182C69.7506 141.182 70.1226 141.104 70.4346 140.948C70.7466 140.792 70.9926 140.576 71.1726 140.3C71.3646 140.024 71.4846 139.712 71.5326 139.364H73.9626C73.9146 140.156 73.6806 140.852 73.2606 141.452C72.8526 142.04 72.3066 142.502 71.6226 142.838C70.9506 143.174 70.1826 143.342 69.3186 143.342ZM80.2149 143.126C79.3149 143.126 78.5709 143.012 77.9829 142.784C77.4069 142.544 76.9749 142.148 76.6869 141.596C76.3989 141.032 76.2549 140.276 76.2549 139.328L76.2729 130.472H78.6129L78.5949 139.49C78.5949 139.97 78.7209 140.342 78.9729 140.606C79.2369 140.858 79.6089 140.984 80.0889 140.984H81.6189V143.126H80.2149ZM74.7069 135.062V133.226H81.6189V135.062H74.7069ZM84.1869 143V133.226H86.6889V143H84.1869ZM82.8189 135.098V133.226H86.6889V135.098H82.8189ZM85.1049 132.056C84.6129 132.056 84.2469 131.93 84.0069 131.678C83.7789 131.414 83.6649 131.09 83.6649 130.706C83.6649 130.298 83.7789 129.968 84.0069 129.716C84.2469 129.464 84.6129 129.338 85.1049 129.338C85.5969 129.338 85.9569 129.464 86.1849 129.716C86.4129 129.968 86.5269 130.298 86.5269 130.706C86.5269 131.09 86.4129 131.414 86.1849 131.678C85.9569 131.93 85.5969 132.056 85.1049 132.056ZM94.2704 143.342C93.4064 143.342 92.6444 143.204 91.9844 142.928C91.3244 142.652 90.7664 142.28 90.3104 141.812C89.8544 141.332 89.5064 140.792 89.2664 140.192C89.0384 139.592 88.9244 138.968 88.9244 138.32V137.942C88.9244 137.27 89.0444 136.634 89.2844 136.034C89.5364 135.422 89.8904 134.882 90.3464 134.414C90.8144 133.934 91.3784 133.562 92.0384 133.298C92.6984 133.022 93.4424 132.884 94.2704 132.884C95.0984 132.884 95.8424 133.022 96.5024 133.298C97.1624 133.562 97.7204 133.934 98.1764 134.414C98.6444 134.882 98.9984 135.422 99.2384 136.034C99.4784 136.634 99.5984 137.27 99.5984 137.942V138.32C99.5984 138.968 99.4784 139.592 99.2384 140.192C99.0104 140.792 98.6684 141.332 98.2124 141.812C97.7564 142.28 97.1984 142.652 96.5384 142.928C95.8784 143.204 95.1224 143.342 94.2704 143.342ZM94.2704 141.2C94.8824 141.2 95.3984 141.068 95.8184 140.804C96.2384 140.528 96.5564 140.162 96.7724 139.706C96.9884 139.238 97.0964 138.71 97.0964 138.122C97.0964 137.522 96.9824 136.994 96.7544 136.538C96.5384 136.07 96.2144 135.704 95.7824 135.44C95.3624 135.164 94.8584 135.026 94.2704 135.026C93.6824 135.026 93.1724 135.164 92.7404 135.44C92.3204 135.704 91.9964 136.07 91.7684 136.538C91.5404 136.994 91.4264 137.522 91.4264 138.122C91.4264 138.71 91.5344 139.238 91.7504 139.706C91.9784 140.162 92.3024 140.528 92.7224 140.804C93.1424 141.068 93.6584 141.2 94.2704 141.2ZM101.789 143V133.226H103.769V137.42H103.589C103.589 136.424 103.721 135.596 103.985 134.936C104.249 134.264 104.639 133.76 105.155 133.424C105.683 133.088 106.337 132.92 107.117 132.92H107.225C108.389 132.92 109.271 133.298 109.871 134.054C110.471 134.798 110.771 135.914 110.771 137.402V143H108.269V137.186C108.269 136.586 108.095 136.1 107.747 135.728C107.411 135.356 106.943 135.17 106.343 135.17C105.731 135.17 105.233 135.362 104.849 135.746C104.477 136.118 104.291 136.622 104.291 137.258V143H101.789Z" fill="#6C52E3"/>
<circle cx="305" cy="40" r="40" fill="#0D0823"/>
<path d="M238.041 116V102.86H242.235L247.761 113.876H248.355L247.995 114.2V102.86H250.407V116H246.195L240.669 104.984H240.057L240.417 104.66V116H238.041ZM257.826 116.342C256.986 116.342 256.248 116.198 255.612 115.91C254.988 115.622 254.466 115.238 254.046 114.758C253.638 114.266 253.326 113.72 253.11 113.12C252.906 112.52 252.804 111.908 252.804 111.284V110.942C252.804 110.294 252.906 109.67 253.11 109.07C253.326 108.458 253.638 107.918 254.046 107.45C254.466 106.97 254.982 106.592 255.594 106.316C256.206 106.028 256.914 105.884 257.718 105.884C258.774 105.884 259.656 106.118 260.364 106.586C261.084 107.042 261.624 107.648 261.984 108.404C262.344 109.148 262.524 109.952 262.524 110.816V111.716H253.866V110.186H260.958L260.184 110.942C260.184 110.318 260.094 109.784 259.914 109.34C259.734 108.896 259.458 108.554 259.086 108.314C258.726 108.074 258.27 107.954 257.718 107.954C257.166 107.954 256.698 108.08 256.314 108.332C255.93 108.584 255.636 108.95 255.432 109.43C255.24 109.898 255.144 110.462 255.144 111.122C255.144 111.734 255.24 112.28 255.432 112.76C255.624 113.228 255.918 113.6 256.314 113.876C256.71 114.14 257.214 114.272 257.826 114.272C258.438 114.272 258.936 114.152 259.32 113.912C259.704 113.66 259.95 113.354 260.058 112.994H262.362C262.218 113.666 261.942 114.254 261.534 114.758C261.126 115.262 260.604 115.652 259.968 115.928C259.344 116.204 258.63 116.342 257.826 116.342ZM268.862 116.126C267.962 116.126 267.218 116.012 266.63 115.784C266.054 115.544 265.622 115.148 265.334 114.596C265.046 114.032 264.902 113.276 264.902 112.328L264.92 103.472H267.26L267.242 112.49C267.242 112.97 267.368 113.342 267.62 113.606C267.884 113.858 268.256 113.984 268.736 113.984H270.266V116.126H268.862ZM263.354 108.062V106.226H270.266V108.062H263.354ZM278.645 111.968V109.754H281.201C281.717 109.754 282.149 109.652 282.497 109.448C282.857 109.244 283.127 108.962 283.307 108.602C283.499 108.242 283.595 107.828 283.595 107.36C283.595 106.892 283.499 106.478 283.307 106.118C283.127 105.758 282.857 105.482 282.497 105.29C282.149 105.086 281.717 104.984 281.201 104.984H278.645V102.77H280.985C282.089 102.77 283.025 102.95 283.793 103.31C284.573 103.67 285.167 104.186 285.575 104.858C285.983 105.518 286.187 106.304 286.187 107.216V107.504C286.187 108.416 285.983 109.208 285.575 109.88C285.167 110.54 284.573 111.056 283.793 111.428C283.025 111.788 282.089 111.968 280.985 111.968H278.645ZM276.449 116V102.77H279.005V116H276.449ZM288.169 116V106.226H290.149V110.366H290.095C290.095 108.962 290.395 107.9 290.995 107.18C291.595 106.46 292.477 106.1 293.641 106.1H294.001V108.278H293.317C292.477 108.278 291.823 108.506 291.355 108.962C290.899 109.406 290.671 110.054 290.671 110.906V116H288.169ZM300.303 116.342C299.439 116.342 298.677 116.204 298.017 115.928C297.357 115.652 296.799 115.28 296.343 114.812C295.887 114.332 295.539 113.792 295.299 113.192C295.071 112.592 294.957 111.968 294.957 111.32V110.942C294.957 110.27 295.077 109.634 295.317 109.034C295.569 108.422 295.923 107.882 296.379 107.414C296.847 106.934 297.411 106.562 298.071 106.298C298.731 106.022 299.475 105.884 300.303 105.884C301.131 105.884 301.875 106.022 302.535 106.298C303.195 106.562 303.753 106.934 304.209 107.414C304.677 107.882 305.031 108.422 305.271 109.034C305.511 109.634 305.631 110.27 305.631 110.942V111.32C305.631 111.968 305.511 112.592 305.271 113.192C305.043 113.792 304.701 114.332 304.245 114.812C303.789 115.28 303.231 115.652 302.571 115.928C301.911 116.204 301.155 116.342 300.303 116.342ZM300.303 114.2C300.915 114.2 301.431 114.068 301.851 113.804C302.271 113.528 302.589 113.162 302.805 112.706C303.021 112.238 303.129 111.71 303.129 111.122C303.129 110.522 303.015 109.994 302.787 109.538C302.571 109.07 302.247 108.704 301.815 108.44C301.395 108.164 300.891 108.026 300.303 108.026C299.715 108.026 299.205 108.164 298.773 108.44C298.353 108.704 298.029 109.07 297.801 109.538C297.573 109.994 297.459 110.522 297.459 111.122C297.459 111.71 297.567 112.238 297.783 112.706C298.011 113.162 298.335 113.528 298.755 113.804C299.175 114.068 299.691 114.2 300.303 114.2ZM307.821 116V106.226H309.801V110.42H309.621C309.621 109.436 309.747 108.614 309.999 107.954C310.251 107.282 310.623 106.778 311.115 106.442C311.619 106.094 312.243 105.92 312.987 105.92H313.095C313.851 105.92 314.475 106.094 314.967 106.442C315.471 106.778 315.843 107.282 316.083 107.954C316.335 108.614 316.461 109.436 316.461 110.42H315.831C315.831 109.436 315.957 108.614 316.209 107.954C316.473 107.282 316.851 106.778 317.343 106.442C317.847 106.094 318.471 105.92 319.215 105.92H319.323C320.079 105.92 320.709 106.094 321.213 106.442C321.717 106.778 322.095 107.282 322.347 107.954C322.611 108.614 322.743 109.436 322.743 110.42V116H320.241V110.186C320.241 109.574 320.085 109.088 319.773 108.728C319.461 108.356 319.017 108.17 318.441 108.17C317.865 108.17 317.403 108.362 317.055 108.746C316.707 109.118 316.533 109.622 316.533 110.258V116H314.031V110.186C314.031 109.574 313.875 109.088 313.563 108.728C313.251 108.356 312.807 108.17 312.231 108.17C311.655 108.17 311.193 108.362 310.845 108.746C310.497 109.118 310.323 109.622 310.323 110.258V116H307.821ZM330.115 116.342C329.251 116.342 328.489 116.204 327.829 115.928C327.169 115.652 326.611 115.28 326.155 114.812C325.699 114.332 325.351 113.792 325.111 113.192C324.883 112.592 324.769 111.968 324.769 111.32V110.942C324.769 110.27 324.889 109.634 325.129 109.034C325.381 108.422 325.735 107.882 326.191 107.414C326.659 106.934 327.223 106.562 327.883 106.298C328.543 106.022 329.287 105.884 330.115 105.884C330.943 105.884 331.687 106.022 332.347 106.298C333.007 106.562 333.565 106.934 334.021 107.414C334.489 107.882 334.843 108.422 335.083 109.034C335.323 109.634 335.443 110.27 335.443 110.942V111.32C335.443 111.968 335.323 112.592 335.083 113.192C334.855 113.792 334.513 114.332 334.057 114.812C333.601 115.28 333.043 115.652 332.383 115.928C331.723 116.204 330.967 116.342 330.115 116.342ZM330.115 114.2C330.727 114.2 331.243 114.068 331.663 113.804C332.083 113.528 332.401 113.162 332.617 112.706C332.833 112.238 332.941 111.71 332.941 111.122C332.941 110.522 332.827 109.994 332.599 109.538C332.383 109.07 332.059 108.704 331.627 108.44C331.207 108.164 330.703 108.026 330.115 108.026C329.527 108.026 329.017 108.164 328.585 108.44C328.165 108.704 327.841 109.07 327.613 109.538C327.385 109.994 327.271 110.522 327.271 111.122C327.271 111.71 327.379 112.238 327.595 112.706C327.823 113.162 328.147 113.528 328.567 113.804C328.987 114.068 329.503 114.2 330.115 114.2ZM341.882 116.126C340.982 116.126 340.238 116.012 339.65 115.784C339.074 115.544 338.642 115.148 338.354 114.596C338.066 114.032 337.922 113.276 337.922 112.328L337.94 103.472H340.28L340.262 112.49C340.262 112.97 340.388 113.342 340.64 113.606C340.904 113.858 341.276 113.984 341.756 113.984H343.286V116.126H341.882ZM336.374 108.062V106.226H343.286V108.062H336.374ZM349.707 116.342C348.867 116.342 348.129 116.198 347.493 115.91C346.869 115.622 346.347 115.238 345.927 114.758C345.519 114.266 345.207 113.72 344.991 113.12C344.787 112.52 344.685 111.908 344.685 111.284V110.942C344.685 110.294 344.787 109.67 344.991 109.07C345.207 108.458 345.519 107.918 345.927 107.45C346.347 106.97 346.863 106.592 347.475 106.316C348.087 106.028 348.795 105.884 349.599 105.884C350.655 105.884 351.537 106.118 352.245 106.586C352.965 107.042 353.505 107.648 353.865 108.404C354.225 109.148 354.405 109.952 354.405 110.816V111.716H345.747V110.186H352.839L352.065 110.942C352.065 110.318 351.975 109.784 351.795 109.34C351.615 108.896 351.339 108.554 350.967 108.314C350.607 108.074 350.151 107.954 349.599 107.954C349.047 107.954 348.579 108.08 348.195 108.332C347.811 108.584 347.517 108.95 347.313 109.43C347.121 109.898 347.025 110.462 347.025 111.122C347.025 111.734 347.121 112.28 347.313 112.76C347.505 113.228 347.799 113.6 348.195 113.876C348.591 114.14 349.095 114.272 349.707 114.272C350.319 114.272 350.817 114.152 351.201 113.912C351.585 113.66 351.831 113.354 351.939 112.994H354.243C354.099 113.666 353.823 114.254 353.415 114.758C353.007 115.262 352.485 115.652 351.849 115.928C351.225 116.204 350.511 116.342 349.707 116.342ZM356.495 116V106.226H358.475V110.366H358.421C358.421 108.962 358.721 107.9 359.321 107.18C359.921 106.46 360.803 106.1 361.967 106.1H362.327V108.278H361.643C360.803 108.278 360.149 108.506 359.681 108.962C359.225 109.406 358.997 110.054 358.997 110.906V116H356.495ZM278.637 143.342C277.473 143.342 276.489 143.156 275.685 142.784C274.893 142.412 274.287 141.902 273.867 141.254C273.447 140.594 273.237 139.85 273.237 139.022H275.739C275.739 139.37 275.835 139.712 276.027 140.048C276.219 140.372 276.525 140.636 276.945 140.84C277.377 141.044 277.941 141.146 278.637 141.146C279.261 141.146 279.783 141.056 280.203 140.876C280.623 140.696 280.935 140.462 281.139 140.174C281.343 139.874 281.445 139.538 281.445 139.166C281.445 138.698 281.247 138.326 280.851 138.05C280.455 137.762 279.843 137.582 279.015 137.51L277.863 137.42C276.603 137.312 275.595 136.922 274.839 136.25C274.095 135.566 273.723 134.666 273.723 133.55C273.723 132.71 273.921 131.99 274.317 131.39C274.713 130.778 275.265 130.31 275.973 129.986C276.693 129.65 277.533 129.482 278.493 129.482C279.489 129.482 280.347 129.656 281.067 130.004C281.787 130.352 282.345 130.844 282.741 131.48C283.137 132.104 283.335 132.842 283.335 133.694H280.833C280.833 133.334 280.743 133.004 280.563 132.704C280.395 132.392 280.137 132.146 279.789 131.966C279.453 131.774 279.021 131.678 278.493 131.678C277.989 131.678 277.569 131.762 277.233 131.93C276.897 132.098 276.645 132.326 276.477 132.614C276.309 132.902 276.225 133.214 276.225 133.55C276.225 133.958 276.375 134.318 276.675 134.63C276.975 134.93 277.449 135.104 278.097 135.152L279.249 135.26C280.185 135.332 281.007 135.53 281.715 135.854C282.423 136.178 282.969 136.616 283.353 137.168C283.749 137.72 283.947 138.386 283.947 139.166C283.947 139.994 283.731 140.726 283.299 141.362C282.867 141.986 282.249 142.472 281.445 142.82C280.653 143.168 279.717 143.342 278.637 143.342ZM290.424 143.342C289.572 143.342 288.834 143.198 288.21 142.91C287.598 142.622 287.082 142.238 286.662 141.758C286.254 141.278 285.948 140.738 285.744 140.138C285.54 139.538 285.438 138.926 285.438 138.302V137.96C285.438 137.3 285.54 136.67 285.744 136.07C285.96 135.458 286.278 134.918 286.698 134.45C287.118 133.97 287.634 133.592 288.246 133.316C288.87 133.028 289.59 132.884 290.406 132.884C291.258 132.884 292.02 133.052 292.692 133.388C293.364 133.712 293.898 134.168 294.294 134.756C294.702 135.344 294.93 136.028 294.978 136.808H292.548C292.488 136.304 292.272 135.884 291.9 135.548C291.54 135.212 291.042 135.044 290.406 135.044C289.854 135.044 289.392 135.176 289.02 135.44C288.66 135.704 288.39 136.07 288.21 136.538C288.03 136.994 287.94 137.522 287.94 138.122C287.94 138.698 288.024 139.22 288.192 139.688C288.372 140.156 288.642 140.522 289.002 140.786C289.374 141.05 289.848 141.182 290.424 141.182C290.856 141.182 291.228 141.104 291.54 140.948C291.852 140.792 292.098 140.576 292.278 140.3C292.47 140.024 292.59 139.712 292.638 139.364H295.068C295.02 140.156 294.786 140.852 294.366 141.452C293.958 142.04 293.412 142.502 292.728 142.838C292.056 143.174 291.288 143.342 290.424 143.342ZM301.77 143.342C300.906 143.342 300.144 143.204 299.484 142.928C298.824 142.652 298.266 142.28 297.81 141.812C297.354 141.332 297.006 140.792 296.766 140.192C296.538 139.592 296.424 138.968 296.424 138.32V137.942C296.424 137.27 296.544 136.634 296.784 136.034C297.036 135.422 297.39 134.882 297.846 134.414C298.314 133.934 298.878 133.562 299.538 133.298C300.198 133.022 300.942 132.884 301.77 132.884C302.598 132.884 303.342 133.022 304.002 133.298C304.662 133.562 305.22 133.934 305.676 134.414C306.144 134.882 306.498 135.422 306.738 136.034C306.978 136.634 307.098 137.27 307.098 137.942V138.32C307.098 138.968 306.978 139.592 306.738 140.192C306.51 140.792 306.168 141.332 305.712 141.812C305.256 142.28 304.698 142.652 304.038 142.928C303.378 143.204 302.622 143.342 301.77 143.342ZM301.77 141.2C302.382 141.2 302.898 141.068 303.318 140.804C303.738 140.528 304.056 140.162 304.272 139.706C304.488 139.238 304.596 138.71 304.596 138.122C304.596 137.522 304.482 136.994 304.254 136.538C304.038 136.07 303.714 135.704 303.282 135.44C302.862 135.164 302.358 135.026 301.77 135.026C301.182 135.026 300.672 135.164 300.24 135.44C299.82 135.704 299.496 136.07 299.268 136.538C299.04 136.994 298.926 137.522 298.926 138.122C298.926 138.71 299.034 139.238 299.25 139.706C299.478 140.162 299.802 140.528 300.222 140.804C300.642 141.068 301.158 141.2 301.77 141.2ZM309.289 143V133.226H311.269V137.366H311.215C311.215 135.962 311.515 134.9 312.115 134.18C312.715 133.46 313.597 133.1 314.761 133.1H315.121V135.278H314.437C313.597 135.278 312.943 135.506 312.475 135.962C312.019 136.406 311.791 137.054 311.791 137.906V143H309.289ZM321.099 143.342C320.259 143.342 319.521 143.198 318.885 142.91C318.261 142.622 317.739 142.238 317.319 141.758C316.911 141.266 316.599 140.72 316.383 140.12C316.179 139.52 316.077 138.908 316.077 138.284V137.942C316.077 137.294 316.179 136.67 316.383 136.07C316.599 135.458 316.911 134.918 317.319 134.45C317.739 133.97 318.255 133.592 318.867 133.316C319.479 133.028 320.187 132.884 320.991 132.884C322.047 132.884 322.929 133.118 323.637 133.586C324.357 134.042 324.897 134.648 325.257 135.404C325.617 136.148 325.797 136.952 325.797 137.816V138.716H317.139V137.186H324.231L323.457 137.942C323.457 137.318 323.367 136.784 323.187 136.34C323.007 135.896 322.731 135.554 322.359 135.314C321.999 135.074 321.543 134.954 320.991 134.954C320.439 134.954 319.971 135.08 319.587 135.332C319.203 135.584 318.909 135.95 318.705 136.43C318.513 136.898 318.417 137.462 318.417 138.122C318.417 138.734 318.513 139.28 318.705 139.76C318.897 140.228 319.191 140.6 319.587 140.876C319.983 141.14 320.487 141.272 321.099 141.272C321.711 141.272 322.209 141.152 322.593 140.912C322.977 140.66 323.223 140.354 323.331 139.994H325.635C325.491 140.666 325.215 141.254 324.807 141.758C324.399 142.262 323.877 142.652 323.241 142.928C322.617 143.204 321.903 143.342 321.099 143.342Z" fill="#6C52E3"/>
<circle cx="554" cy="40" r="40" fill="#0D0823"/>
<path d="M487.863 116.342C486.675 116.342 485.655 116.132 484.803 115.712C483.951 115.292 483.255 114.746 482.715 114.074C482.187 113.402 481.797 112.67 481.545 111.878C481.293 111.086 481.167 110.324 481.167 109.592V109.196C481.167 108.38 481.293 107.576 481.545 106.784C481.809 105.992 482.211 105.272 482.751 104.624C483.291 103.976 483.975 103.46 484.803 103.076C485.643 102.68 486.633 102.482 487.773 102.482C488.961 102.482 489.993 102.698 490.869 103.13C491.757 103.55 492.465 104.15 492.993 104.93C493.521 105.698 493.839 106.598 493.947 107.63H491.373C491.277 107.03 491.061 106.526 490.725 106.118C490.401 105.698 489.987 105.386 489.483 105.182C488.979 104.966 488.409 104.858 487.773 104.858C487.125 104.858 486.549 104.972 486.045 105.2C485.541 105.416 485.121 105.728 484.785 106.136C484.449 106.544 484.191 107.024 484.011 107.576C483.843 108.128 483.759 108.74 483.759 109.412C483.759 110.06 483.843 110.66 484.011 111.212C484.191 111.764 484.455 112.25 484.803 112.67C485.151 113.078 485.577 113.396 486.081 113.624C486.597 113.852 487.191 113.966 487.863 113.966C488.847 113.966 489.675 113.726 490.347 113.246C491.031 112.754 491.445 112.07 491.589 111.194H494.163C494.043 112.13 493.725 112.988 493.209 113.768C492.693 114.548 491.985 115.172 491.085 115.64C490.185 116.108 489.111 116.342 487.863 116.342ZM499.452 116.306C498.324 116.306 497.448 115.934 496.824 115.19C496.212 114.446 495.906 113.342 495.906 111.878V106.208H498.408V112.094C498.408 112.694 498.576 113.174 498.912 113.534C499.248 113.882 499.704 114.056 500.28 114.056C500.856 114.056 501.324 113.87 501.684 113.498C502.056 113.126 502.242 112.622 502.242 111.986V106.208H504.744V116H502.764V111.842H502.962C502.962 112.826 502.836 113.648 502.584 114.308C502.332 114.968 501.954 115.466 501.45 115.802C500.946 116.138 500.316 116.306 499.56 116.306H499.452ZM511.164 116.306C509.82 116.306 508.764 116.024 507.996 115.46C507.24 114.884 506.844 114.092 506.808 113.084H509.058C509.094 113.42 509.28 113.726 509.616 114.002C509.952 114.278 510.48 114.416 511.2 114.416C511.8 114.416 512.274 114.308 512.622 114.092C512.982 113.876 513.162 113.582 513.162 113.21C513.162 112.886 513.024 112.628 512.748 112.436C512.484 112.244 512.028 112.118 511.38 112.058L510.516 111.968C509.424 111.848 508.584 111.536 507.996 111.032C507.408 110.528 507.114 109.856 507.114 109.016C507.114 108.344 507.282 107.78 507.618 107.324C507.954 106.868 508.416 106.526 509.004 106.298C509.604 106.058 510.288 105.938 511.056 105.938C512.256 105.938 513.228 106.202 513.972 106.73C514.716 107.258 515.106 108.032 515.142 109.052H512.892C512.868 108.716 512.7 108.428 512.388 108.188C512.076 107.948 511.626 107.828 511.038 107.828C510.51 107.828 510.102 107.93 509.814 108.134C509.526 108.338 509.382 108.602 509.382 108.926C509.382 109.238 509.496 109.478 509.724 109.646C509.964 109.814 510.348 109.928 510.876 109.988L511.74 110.078C512.892 110.198 513.792 110.516 514.44 111.032C515.1 111.548 515.43 112.244 515.43 113.12C515.43 113.768 515.25 114.332 514.89 114.812C514.542 115.28 514.05 115.646 513.414 115.91C512.778 116.174 512.028 116.306 511.164 116.306ZM521.745 116.126C520.845 116.126 520.101 116.012 519.513 115.784C518.937 115.544 518.505 115.148 518.217 114.596C517.929 114.032 517.785 113.276 517.785 112.328L517.803 103.472H520.143L520.125 112.49C520.125 112.97 520.251 113.342 520.503 113.606C520.767 113.858 521.139 113.984 521.619 113.984H523.149V116.126H521.745ZM516.237 108.062V106.226H523.149V108.062H516.237ZM529.894 116.342C529.03 116.342 528.268 116.204 527.608 115.928C526.948 115.652 526.39 115.28 525.934 114.812C525.478 114.332 525.13 113.792 524.89 113.192C524.662 112.592 524.548 111.968 524.548 111.32V110.942C524.548 110.27 524.668 109.634 524.908 109.034C525.16 108.422 525.514 107.882 525.97 107.414C526.438 106.934 527.002 106.562 527.662 106.298C528.322 106.022 529.066 105.884 529.894 105.884C530.722 105.884 531.466 106.022 532.126 106.298C532.786 106.562 533.344 106.934 533.8 107.414C534.268 107.882 534.622 108.422 534.862 109.034C535.102 109.634 535.222 110.27 535.222 110.942V111.32C535.222 111.968 535.102 112.592 534.862 113.192C534.634 113.792 534.292 114.332 533.836 114.812C533.38 115.28 532.822 115.652 532.162 115.928C531.502 116.204 530.746 116.342 529.894 116.342ZM529.894 114.2C530.506 114.2 531.022 114.068 531.442 113.804C531.862 113.528 532.18 113.162 532.396 112.706C532.612 112.238 532.72 111.71 532.72 111.122C532.72 110.522 532.606 109.994 532.378 109.538C532.162 109.07 531.838 108.704 531.406 108.44C530.986 108.164 530.482 108.026 529.894 108.026C529.306 108.026 528.796 108.164 528.364 108.44C527.944 108.704 527.62 109.07 527.392 109.538C527.164 109.994 527.05 110.522 527.05 111.122C527.05 111.71 527.158 112.238 527.374 112.706C527.602 113.162 527.926 113.528 528.346 113.804C528.766 114.068 529.282 114.2 529.894 114.2ZM537.413 116V106.226H539.393V110.42H539.213C539.213 109.436 539.339 108.614 539.591 107.954C539.843 107.282 540.215 106.778 540.707 106.442C541.211 106.094 541.835 105.92 542.579 105.92H542.687C543.443 105.92 544.067 106.094 544.559 106.442C545.063 106.778 545.435 107.282 545.675 107.954C545.927 108.614 546.053 109.436 546.053 110.42H545.423C545.423 109.436 545.549 108.614 545.801 107.954C546.065 107.282 546.443 106.778 546.935 106.442C547.439 106.094 548.063 105.92 548.807 105.92H548.915C549.671 105.92 550.301 106.094 550.805 106.442C551.309 106.778 551.687 107.282 551.939 107.954C552.203 108.614 552.335 109.436 552.335 110.42V116H549.833V110.186C549.833 109.574 549.677 109.088 549.365 108.728C549.053 108.356 548.609 108.17 548.033 108.17C547.457 108.17 546.995 108.362 546.647 108.746C546.299 109.118 546.125 109.622 546.125 110.258V116H543.623V110.186C543.623 109.574 543.467 109.088 543.155 108.728C542.843 108.356 542.399 108.17 541.823 108.17C541.247 108.17 540.785 108.362 540.437 108.746C540.089 109.118 539.915 109.622 539.915 110.258V116H537.413ZM559.383 116.342C558.543 116.342 557.805 116.198 557.169 115.91C556.545 115.622 556.023 115.238 555.603 114.758C555.195 114.266 554.883 113.72 554.667 113.12C554.463 112.52 554.361 111.908 554.361 111.284V110.942C554.361 110.294 554.463 109.67 554.667 109.07C554.883 108.458 555.195 107.918 555.603 107.45C556.023 106.97 556.539 106.592 557.151 106.316C557.763 106.028 558.471 105.884 559.275 105.884C560.331 105.884 561.213 106.118 561.921 106.586C562.641 107.042 563.181 107.648 563.541 108.404C563.901 109.148 564.081 109.952 564.081 110.816V111.716H555.423V110.186H562.515L561.741 110.942C561.741 110.318 561.651 109.784 561.471 109.34C561.291 108.896 561.015 108.554 560.643 108.314C560.283 108.074 559.827 107.954 559.275 107.954C558.723 107.954 558.255 108.08 557.871 108.332C557.487 108.584 557.193 108.95 556.989 109.43C556.797 109.898 556.701 110.462 556.701 111.122C556.701 111.734 556.797 112.28 556.989 112.76C557.181 113.228 557.475 113.6 557.871 113.876C558.267 114.14 558.771 114.272 559.383 114.272C559.995 114.272 560.493 114.152 560.877 113.912C561.261 113.66 561.507 113.354 561.615 112.994H563.919C563.775 113.666 563.499 114.254 563.091 114.758C562.683 115.262 562.161 115.652 561.525 115.928C560.901 116.204 560.187 116.342 559.383 116.342ZM566.171 116V106.226H568.151V110.366H568.097C568.097 108.962 568.397 107.9 568.997 107.18C569.597 106.46 570.479 106.1 571.643 106.1H572.003V108.278H571.319C570.479 108.278 569.825 108.506 569.357 108.962C568.901 109.406 568.673 110.054 568.673 110.906V116H566.171ZM577.76 116V102.86H580.262V116H577.76ZM579.902 116V113.84H585.86V116H579.902ZM579.902 110.402V108.242H585.392V110.402H579.902ZM579.902 105.02V102.86H585.716V105.02H579.902ZM588.5 116V105.884C588.5 104.768 588.806 103.946 589.418 103.418C590.042 102.878 590.96 102.608 592.172 102.608H593.09V104.534H591.992C591.62 104.534 591.332 104.636 591.128 104.84C590.936 105.032 590.84 105.308 590.84 105.668V116H588.5ZM594.872 116V105.992C594.872 104.876 595.178 104.054 595.79 103.526C596.414 102.986 597.332 102.716 598.544 102.716H599.732V104.642H598.364C597.992 104.642 597.704 104.744 597.5 104.948C597.308 105.14 597.212 105.416 597.212 105.776V116H594.872ZM587.294 108.224V106.388H599.894V108.224H587.294ZM606.113 116.342C605.249 116.342 604.487 116.204 603.827 115.928C603.167 115.652 602.609 115.28 602.153 114.812C601.697 114.332 601.349 113.792 601.109 113.192C600.881 112.592 600.767 111.968 600.767 111.32V110.942C600.767 110.27 600.887 109.634 601.127 109.034C601.379 108.422 601.733 107.882 602.189 107.414C602.657 106.934 603.221 106.562 603.881 106.298C604.541 106.022 605.285 105.884 606.113 105.884C606.941 105.884 607.685 106.022 608.345 106.298C609.005 106.562 609.563 106.934 610.019 107.414C610.487 107.882 610.841 108.422 611.081 109.034C611.321 109.634 611.441 110.27 611.441 110.942V111.32C611.441 111.968 611.321 112.592 611.081 113.192C610.853 113.792 610.511 114.332 610.055 114.812C609.599 115.28 609.041 115.652 608.381 115.928C607.721 116.204 606.965 116.342 606.113 116.342ZM606.113 114.2C606.725 114.2 607.241 114.068 607.661 113.804C608.081 113.528 608.399 113.162 608.615 112.706C608.831 112.238 608.939 111.71 608.939 111.122C608.939 110.522 608.825 109.994 608.597 109.538C608.381 109.07 608.057 108.704 607.625 108.44C607.205 108.164 606.701 108.026 606.113 108.026C605.525 108.026 605.015 108.164 604.583 108.44C604.163 108.704 603.839 109.07 603.611 109.538C603.383 109.994 603.269 110.522 603.269 111.122C603.269 111.71 603.377 112.238 603.593 112.706C603.821 113.162 604.145 113.528 604.565 113.804C604.985 114.068 605.501 114.2 606.113 114.2ZM613.632 116V106.226H615.612V110.366H615.558C615.558 108.962 615.858 107.9 616.458 107.18C617.058 106.46 617.94 106.1 619.104 106.1H619.464V108.278H618.78C617.94 108.278 617.286 108.506 616.818 108.962C616.362 109.406 616.134 110.054 616.134 110.906V116H613.632ZM625.597 116.126C624.697 116.126 623.953 116.012 623.365 115.784C622.789 115.544 622.357 115.148 622.069 114.596C621.781 114.032 621.637 113.276 621.637 112.328L621.655 103.472H623.995L623.977 112.49C623.977 112.97 624.103 113.342 624.355 113.606C624.619 113.858 624.991 113.984 625.471 113.984H627.001V116.126H625.597ZM620.089 108.062V106.226H627.001V108.062H620.089ZM533.137 143.342C531.973 143.342 530.989 143.156 530.185 142.784C529.393 142.412 528.787 141.902 528.367 141.254C527.947 140.594 527.737 139.85 527.737 139.022H530.239C530.239 139.37 530.335 139.712 530.527 140.048C530.719 140.372 531.025 140.636 531.445 140.84C531.877 141.044 532.441 141.146 533.137 141.146C533.761 141.146 534.283 141.056 534.703 140.876C535.123 140.696 535.435 140.462 535.639 140.174C535.843 139.874 535.945 139.538 535.945 139.166C535.945 138.698 535.747 138.326 535.351 138.05C534.955 137.762 534.343 137.582 533.515 137.51L532.363 137.42C531.103 137.312 530.095 136.922 529.339 136.25C528.595 135.566 528.223 134.666 528.223 133.55C528.223 132.71 528.421 131.99 528.817 131.39C529.213 130.778 529.765 130.31 530.473 129.986C531.193 129.65 532.033 129.482 532.993 129.482C533.989 129.482 534.847 129.656 535.567 130.004C536.287 130.352 536.845 130.844 537.241 131.48C537.637 132.104 537.835 132.842 537.835 133.694H535.333C535.333 133.334 535.243 133.004 535.063 132.704C534.895 132.392 534.637 132.146 534.289 131.966C533.953 131.774 533.521 131.678 532.993 131.678C532.489 131.678 532.069 131.762 531.733 131.93C531.397 132.098 531.145 132.326 530.977 132.614C530.809 132.902 530.725 133.214 530.725 133.55C530.725 133.958 530.875 134.318 531.175 134.63C531.475 134.93 531.949 135.104 532.597 135.152L533.749 135.26C534.685 135.332 535.507 135.53 536.215 135.854C536.923 136.178 537.469 136.616 537.853 137.168C538.249 137.72 538.447 138.386 538.447 139.166C538.447 139.994 538.231 140.726 537.799 141.362C537.367 141.986 536.749 142.472 535.945 142.82C535.153 143.168 534.217 143.342 533.137 143.342ZM544.924 143.342C544.072 143.342 543.334 143.198 542.71 142.91C542.098 142.622 541.582 142.238 541.162 141.758C540.754 141.278 540.448 140.738 540.244 140.138C540.04 139.538 539.938 138.926 539.938 138.302V137.96C539.938 137.3 540.04 136.67 540.244 136.07C540.46 135.458 540.778 134.918 541.198 134.45C541.618 133.97 542.134 133.592 542.746 133.316C543.37 133.028 544.09 132.884 544.906 132.884C545.758 132.884 546.52 133.052 547.192 133.388C547.864 133.712 548.398 134.168 548.794 134.756C549.202 135.344 549.43 136.028 549.478 136.808H547.048C546.988 136.304 546.772 135.884 546.4 135.548C546.04 135.212 545.542 135.044 544.906 135.044C544.354 135.044 543.892 135.176 543.52 135.44C543.16 135.704 542.89 136.07 542.71 136.538C542.53 136.994 542.44 137.522 542.44 138.122C542.44 138.698 542.524 139.22 542.692 139.688C542.872 140.156 543.142 140.522 543.502 140.786C543.874 141.05 544.348 141.182 544.924 141.182C545.356 141.182 545.728 141.104 546.04 140.948C546.352 140.792 546.598 140.576 546.778 140.3C546.97 140.024 547.09 139.712 547.138 139.364H549.568C549.52 140.156 549.286 140.852 548.866 141.452C548.458 142.04 547.912 142.502 547.228 142.838C546.556 143.174 545.788 143.342 544.924 143.342ZM556.27 143.342C555.406 143.342 554.644 143.204 553.984 142.928C553.324 142.652 552.766 142.28 552.31 141.812C551.854 141.332 551.506 140.792 551.266 140.192C551.038 139.592 550.924 138.968 550.924 138.32V137.942C550.924 137.27 551.044 136.634 551.284 136.034C551.536 135.422 551.89 134.882 552.346 134.414C552.814 133.934 553.378 133.562 554.038 133.298C554.698 133.022 555.442 132.884 556.27 132.884C557.098 132.884 557.842 133.022 558.502 133.298C559.162 133.562 559.72 133.934 560.176 134.414C560.644 134.882 560.998 135.422 561.238 136.034C561.478 136.634 561.598 137.27 561.598 137.942V138.32C561.598 138.968 561.478 139.592 561.238 140.192C561.01 140.792 560.668 141.332 560.212 141.812C559.756 142.28 559.198 142.652 558.538 142.928C557.878 143.204 557.122 143.342 556.27 143.342ZM556.27 141.2C556.882 141.2 557.398 141.068 557.818 140.804C558.238 140.528 558.556 140.162 558.772 139.706C558.988 139.238 559.096 138.71 559.096 138.122C559.096 137.522 558.982 136.994 558.754 136.538C558.538 136.07 558.214 135.704 557.782 135.44C557.362 135.164 556.858 135.026 556.27 135.026C555.682 135.026 555.172 135.164 554.74 135.44C554.32 135.704 553.996 136.07 553.768 136.538C553.54 136.994 553.426 137.522 553.426 138.122C553.426 138.71 553.534 139.238 553.75 139.706C553.978 140.162 554.302 140.528 554.722 140.804C555.142 141.068 555.658 141.2 556.27 141.2ZM563.789 143V133.226H565.769V137.366H565.715C565.715 135.962 566.015 134.9 566.615 134.18C567.215 133.46 568.097 133.1 569.261 133.1H569.621V135.278H568.937C568.097 135.278 567.443 135.506 566.975 135.962C566.519 136.406 566.291 137.054 566.291 137.906V143H563.789ZM575.599 143.342C574.759 143.342 574.021 143.198 573.385 142.91C572.761 142.622 572.239 142.238 571.819 141.758C571.411 141.266 571.099 140.72 570.883 140.12C570.679 139.52 570.577 138.908 570.577 138.284V137.942C570.577 137.294 570.679 136.67 570.883 136.07C571.099 135.458 571.411 134.918 571.819 134.45C572.239 133.97 572.755 133.592 573.367 133.316C573.979 133.028 574.687 132.884 575.491 132.884C576.547 132.884 577.429 133.118 578.137 133.586C578.857 134.042 579.397 134.648 579.757 135.404C580.117 136.148 580.297 136.952 580.297 137.816V138.716H571.639V137.186H578.731L577.957 137.942C577.957 137.318 577.867 136.784 577.687 136.34C577.507 135.896 577.231 135.554 576.859 135.314C576.499 135.074 576.043 134.954 575.491 134.954C574.939 134.954 574.471 135.08 574.087 135.332C573.703 135.584 573.409 135.95 573.205 136.43C573.013 136.898 572.917 137.462 572.917 138.122C572.917 138.734 573.013 139.28 573.205 139.76C573.397 140.228 573.691 140.6 574.087 140.876C574.483 141.14 574.987 141.272 575.599 141.272C576.211 141.272 576.709 141.152 577.093 140.912C577.477 140.66 577.723 140.354 577.831 139.994H580.135C579.991 140.666 579.715 141.254 579.307 141.758C578.899 142.262 578.377 142.652 577.741 142.928C577.117 143.204 576.403 143.342 575.599 143.342Z" fill="#6C52E3"/>
<circle cx="803.5" cy="40" r="40" fill="#0D0823"/>
<path d="M779.919 116.09V114.038H783.213C783.813 114.038 784.269 113.876 784.581 113.552C784.893 113.216 785.049 112.76 785.049 112.184C785.049 111.608 784.893 111.164 784.581 110.852C784.269 110.528 783.813 110.366 783.213 110.366H779.919V108.8H783.033C783.909 108.8 784.689 108.908 785.373 109.124C786.069 109.328 786.609 109.676 786.993 110.168C787.389 110.66 787.587 111.32 787.587 112.148V112.4C787.587 113.18 787.413 113.846 787.065 114.398C786.729 114.938 786.219 115.358 785.535 115.658C784.863 115.946 784.029 116.09 783.033 116.09H779.919ZM777.777 116.09V102.77H780.279V116.09H777.777ZM779.919 109.952V108.386H782.727C783.339 108.386 783.789 108.224 784.077 107.9C784.365 107.576 784.509 107.144 784.509 106.604C784.509 106.064 784.365 105.632 784.077 105.308C783.789 104.984 783.339 104.822 782.727 104.822H779.919V102.77H782.493C783.981 102.77 785.109 103.082 785.877 103.706C786.657 104.33 787.047 105.224 787.047 106.388V106.64C787.047 107.456 786.849 108.11 786.453 108.602C786.069 109.082 785.535 109.43 784.851 109.646C784.167 109.85 783.381 109.952 782.493 109.952H779.919ZM789.972 116V106.226H791.952V110.366H791.898C791.898 108.962 792.198 107.9 792.798 107.18C793.398 106.46 794.28 106.1 795.444 106.1H795.804V108.278H795.12C794.28 108.278 793.626 108.506 793.158 108.962C792.702 109.406 792.474 110.054 792.474 110.906V116H789.972ZM803.347 116V113.102H802.933V109.88C802.933 109.316 802.795 108.896 802.519 108.62C802.243 108.344 801.817 108.206 801.241 108.206C800.941 108.206 800.581 108.212 800.161 108.224C799.741 108.236 799.315 108.254 798.883 108.278C798.463 108.29 798.085 108.308 797.749 108.332V106.208C798.025 106.184 798.337 106.16 798.685 106.136C799.033 106.112 799.387 106.1 799.747 106.1C800.119 106.088 800.467 106.082 800.791 106.082C801.799 106.082 802.633 106.214 803.293 106.478C803.965 106.742 804.469 107.156 804.805 107.72C805.153 108.284 805.327 109.022 805.327 109.934V116H803.347ZM800.197 116.252C799.489 116.252 798.865 116.126 798.325 115.874C797.797 115.622 797.383 115.262 797.083 114.794C796.795 114.326 796.651 113.762 796.651 113.102C796.651 112.382 796.825 111.794 797.173 111.338C797.533 110.882 798.031 110.54 798.667 110.312C799.315 110.084 800.071 109.97 800.935 109.97H803.203V111.464H800.899C800.323 111.464 799.879 111.608 799.567 111.896C799.267 112.172 799.117 112.532 799.117 112.976C799.117 113.42 799.267 113.78 799.567 114.056C799.879 114.332 800.323 114.47 800.899 114.47C801.247 114.47 801.565 114.41 801.853 114.29C802.153 114.158 802.399 113.942 802.591 113.642C802.795 113.33 802.909 112.91 802.933 112.382L803.545 113.084C803.485 113.768 803.317 114.344 803.041 114.812C802.777 115.28 802.405 115.64 801.925 115.892C801.457 116.132 800.881 116.252 800.197 116.252ZM808.007 116V106.226H809.987V110.42H809.807C809.807 109.424 809.939 108.596 810.203 107.936C810.467 107.264 810.857 106.76 811.373 106.424C811.901 106.088 812.555 105.92 813.335 105.92H813.443C814.607 105.92 815.489 106.298 816.089 107.054C816.689 107.798 816.989 108.914 816.989 110.402V116H814.487V110.186C814.487 109.586 814.313 109.1 813.965 108.728C813.629 108.356 813.161 108.17 812.561 108.17C811.949 108.17 811.451 108.362 811.067 108.746C810.695 109.118 810.509 109.622 810.509 110.258V116H808.007ZM823.729 116.324C823.045 116.324 822.415 116.198 821.839 115.946C821.263 115.694 820.765 115.34 820.345 114.884C819.925 114.428 819.601 113.9 819.373 113.3C819.145 112.688 819.031 112.028 819.031 111.32V110.942C819.031 110.246 819.139 109.592 819.355 108.98C819.583 108.368 819.895 107.834 820.291 107.378C820.699 106.922 821.185 106.568 821.749 106.316C822.325 106.052 822.961 105.92 823.657 105.92C824.425 105.92 825.097 106.088 825.673 106.424C826.261 106.748 826.729 107.24 827.077 107.9C827.425 108.56 827.617 109.388 827.653 110.384L826.915 109.52V102.86H829.417V116H827.437V111.842H827.869C827.833 112.838 827.629 113.672 827.257 114.344C826.885 115.004 826.393 115.502 825.781 115.838C825.181 116.162 824.497 116.324 823.729 116.324ZM824.287 114.218C824.779 114.218 825.229 114.11 825.637 113.894C826.045 113.666 826.369 113.342 826.609 112.922C826.861 112.49 826.987 111.986 826.987 111.41V110.69C826.987 110.114 826.861 109.634 826.609 109.25C826.357 108.854 826.027 108.554 825.619 108.35C825.211 108.134 824.767 108.026 824.287 108.026C823.747 108.026 823.267 108.158 822.847 108.422C822.439 108.674 822.115 109.034 821.875 109.502C821.647 109.97 821.533 110.516 821.533 111.14C821.533 111.764 821.653 112.31 821.893 112.778C822.133 113.234 822.457 113.588 822.865 113.84C823.285 114.092 823.759 114.218 824.287 114.218ZM756.049 138.968V136.754H758.605C759.121 136.754 759.553 136.652 759.901 136.448C760.261 136.244 760.531 135.962 760.711 135.602C760.903 135.242 760.999 134.828 760.999 134.36C760.999 133.892 760.903 133.478 760.711 133.118C760.531 132.758 760.261 132.482 759.901 132.29C759.553 132.086 759.121 131.984 758.605 131.984H756.049V129.77H758.389C759.493 129.77 760.429 129.95 761.197 130.31C761.977 130.67 762.571 131.186 762.979 131.858C763.387 132.518 763.591 133.304 763.591 134.216V134.504C763.591 135.416 763.387 136.208 762.979 136.88C762.571 137.54 761.977 138.056 761.197 138.428C760.429 138.788 759.493 138.968 758.389 138.968H756.049ZM753.853 143V129.77H756.409V143H753.853ZM769.736 143.342C768.896 143.342 768.158 143.198 767.522 142.91C766.898 142.622 766.376 142.238 765.956 141.758C765.548 141.266 765.236 140.72 765.02 140.12C764.816 139.52 764.714 138.908 764.714 138.284V137.942C764.714 137.294 764.816 136.67 765.02 136.07C765.236 135.458 765.548 134.918 765.956 134.45C766.376 133.97 766.892 133.592 767.504 133.316C768.116 133.028 768.824 132.884 769.628 132.884C770.684 132.884 771.566 133.118 772.274 133.586C772.994 134.042 773.534 134.648 773.894 135.404C774.254 136.148 774.434 136.952 774.434 137.816V138.716H765.776V137.186H772.868L772.094 137.942C772.094 137.318 772.004 136.784 771.824 136.34C771.644 135.896 771.368 135.554 770.996 135.314C770.636 135.074 770.18 134.954 769.628 134.954C769.076 134.954 768.608 135.08 768.224 135.332C767.84 135.584 767.546 135.95 767.342 136.43C767.15 136.898 767.054 137.462 767.054 138.122C767.054 138.734 767.15 139.28 767.342 139.76C767.534 140.228 767.828 140.6 768.224 140.876C768.62 141.14 769.124 141.272 769.736 141.272C770.348 141.272 770.846 141.152 771.23 140.912C771.614 140.66 771.86 140.354 771.968 139.994H774.272C774.128 140.666 773.852 141.254 773.444 141.758C773.036 142.262 772.514 142.652 771.878 142.928C771.254 143.204 770.54 143.342 769.736 143.342ZM776.525 143V133.226H778.505V137.366H778.451C778.451 135.962 778.751 134.9 779.351 134.18C779.951 133.46 780.833 133.1 781.997 133.1H782.357V135.278H781.673C780.833 135.278 780.179 135.506 779.711 135.962C779.255 136.406 779.027 137.054 779.027 137.906V143H776.525ZM788.298 143.342C787.446 143.342 786.708 143.198 786.084 142.91C785.472 142.622 784.956 142.238 784.536 141.758C784.128 141.278 783.822 140.738 783.618 140.138C783.414 139.538 783.312 138.926 783.312 138.302V137.96C783.312 137.3 783.414 136.67 783.618 136.07C783.834 135.458 784.152 134.918 784.572 134.45C784.992 133.97 785.508 133.592 786.12 133.316C786.744 133.028 787.464 132.884 788.28 132.884C789.132 132.884 789.894 133.052 790.566 133.388C791.238 133.712 791.772 134.168 792.168 134.756C792.576 135.344 792.804 136.028 792.852 136.808H790.422C790.362 136.304 790.146 135.884 789.774 135.548C789.414 135.212 788.916 135.044 788.28 135.044C787.728 135.044 787.266 135.176 786.894 135.44C786.534 135.704 786.264 136.07 786.084 136.538C785.904 136.994 785.814 137.522 785.814 138.122C785.814 138.698 785.898 139.22 786.066 139.688C786.246 140.156 786.516 140.522 786.876 140.786C787.248 141.05 787.722 141.182 788.298 141.182C788.73 141.182 789.102 141.104 789.414 140.948C789.726 140.792 789.972 140.576 790.152 140.3C790.344 140.024 790.464 139.712 790.512 139.364H792.942C792.894 140.156 792.66 140.852 792.24 141.452C791.832 142.04 791.286 142.502 790.602 142.838C789.93 143.174 789.162 143.342 788.298 143.342ZM799.32 143.342C798.48 143.342 797.742 143.198 797.106 142.91C796.482 142.622 795.96 142.238 795.54 141.758C795.132 141.266 794.82 140.72 794.604 140.12C794.4 139.52 794.298 138.908 794.298 138.284V137.942C794.298 137.294 794.4 136.67 794.604 136.07C794.82 135.458 795.132 134.918 795.54 134.45C795.96 133.97 796.476 133.592 797.088 133.316C797.7 133.028 798.408 132.884 799.212 132.884C800.268 132.884 801.15 133.118 801.858 133.586C802.578 134.042 803.118 134.648 803.478 135.404C803.838 136.148 804.018 136.952 804.018 137.816V138.716H795.36V137.186H802.452L801.678 137.942C801.678 137.318 801.588 136.784 801.408 136.34C801.228 135.896 800.952 135.554 800.58 135.314C800.22 135.074 799.764 134.954 799.212 134.954C798.66 134.954 798.192 135.08 797.808 135.332C797.424 135.584 797.13 135.95 796.926 136.43C796.734 136.898 796.638 137.462 796.638 138.122C796.638 138.734 796.734 139.28 796.926 139.76C797.118 140.228 797.412 140.6 797.808 140.876C798.204 141.14 798.708 141.272 799.32 141.272C799.932 141.272 800.43 141.152 800.814 140.912C801.198 140.66 801.444 140.354 801.552 139.994H803.856C803.712 140.666 803.436 141.254 803.028 141.758C802.62 142.262 802.098 142.652 801.462 142.928C800.838 143.204 800.124 143.342 799.32 143.342ZM806.109 146.6V133.226H808.089V137.438L807.783 137.42C807.831 136.424 808.035 135.59 808.395 134.918C808.767 134.246 809.259 133.748 809.871 133.424C810.483 133.088 811.167 132.92 811.923 132.92C812.619 132.92 813.243 133.046 813.795 133.298C814.359 133.55 814.839 133.904 815.235 134.36C815.643 134.816 815.955 135.35 816.171 135.962C816.387 136.562 816.495 137.21 816.495 137.906V138.284C816.495 138.992 816.387 139.652 816.171 140.264C815.967 140.864 815.661 141.398 815.253 141.866C814.857 142.322 814.377 142.682 813.813 142.946C813.249 143.198 812.619 143.324 811.923 143.324C811.191 143.324 810.519 143.174 809.907 142.874C809.307 142.562 808.821 142.088 808.449 141.452C808.077 140.804 807.867 139.97 807.819 138.95L808.611 140.156V146.6H806.109ZM811.293 141.218C811.833 141.218 812.301 141.086 812.697 140.822C813.105 140.558 813.423 140.192 813.651 139.724C813.879 139.244 813.993 138.704 813.993 138.104C813.993 137.48 813.879 136.94 813.651 136.484C813.423 136.028 813.105 135.674 812.697 135.422C812.301 135.158 811.833 135.026 811.293 135.026C810.801 135.026 810.345 135.134 809.925 135.35C809.517 135.566 809.181 135.884 808.917 136.304C808.665 136.724 808.539 137.228 808.539 137.816V138.536C808.539 139.1 808.671 139.58 808.935 139.976C809.199 140.372 809.541 140.678 809.961 140.894C810.381 141.11 810.825 141.218 811.293 141.218ZM822.942 143.126C822.042 143.126 821.298 143.012 820.71 142.784C820.134 142.544 819.702 142.148 819.414 141.596C819.126 141.032 818.982 140.276 818.982 139.328L819 130.472H821.34L821.322 139.49C821.322 139.97 821.448 140.342 821.7 140.606C821.964 140.858 822.336 140.984 822.816 140.984H824.346V143.126H822.942ZM817.434 135.062V133.226H824.346V135.062H817.434ZM826.914 143V133.226H829.416V143H826.914ZM825.546 135.098V133.226H829.416V135.098H825.546ZM827.832 132.056C827.34 132.056 826.974 131.93 826.734 131.678C826.506 131.414 826.392 131.09 826.392 130.706C826.392 130.298 826.506 129.968 826.734 129.716C826.974 129.464 827.34 129.338 827.832 129.338C828.324 129.338 828.684 129.464 828.912 129.716C829.14 129.968 829.254 130.298 829.254 130.706C829.254 131.09 829.14 131.414 828.912 131.678C828.684 131.93 828.324 132.056 827.832 132.056ZM836.998 143.342C836.134 143.342 835.372 143.204 834.712 142.928C834.052 142.652 833.494 142.28 833.038 141.812C832.582 141.332 832.234 140.792 831.994 140.192C831.766 139.592 831.652 138.968 831.652 138.32V137.942C831.652 137.27 831.772 136.634 832.012 136.034C832.264 135.422 832.618 134.882 833.074 134.414C833.542 133.934 834.106 133.562 834.766 133.298C835.426 133.022 836.17 132.884 836.998 132.884C837.826 132.884 838.57 133.022 839.23 133.298C839.89 133.562 840.448 133.934 840.904 134.414C841.372 134.882 841.726 135.422 841.966 136.034C842.206 136.634 842.326 137.27 842.326 137.942V138.32C842.326 138.968 842.206 139.592 841.966 140.192C841.738 140.792 841.396 141.332 840.94 141.812C840.484 142.28 839.926 142.652 839.266 142.928C838.606 143.204 837.85 143.342 836.998 143.342ZM836.998 141.2C837.61 141.2 838.126 141.068 838.546 140.804C838.966 140.528 839.284 140.162 839.5 139.706C839.716 139.238 839.824 138.71 839.824 138.122C839.824 137.522 839.71 136.994 839.482 136.538C839.266 136.07 838.942 135.704 838.51 135.44C838.09 135.164 837.586 135.026 836.998 135.026C836.41 135.026 835.9 135.164 835.468 135.44C835.048 135.704 834.724 136.07 834.496 136.538C834.268 136.994 834.154 137.522 834.154 138.122C834.154 138.71 834.262 139.238 834.478 139.706C834.706 140.162 835.03 140.528 835.45 140.804C835.87 141.068 836.386 141.2 836.998 141.2ZM844.517 143V133.226H846.497V137.42H846.317C846.317 136.424 846.449 135.596 846.713 134.936C846.977 134.264 847.367 133.76 847.883 133.424C848.411 133.088 849.065 132.92 849.845 132.92H849.953C851.117 132.92 851.999 133.298 852.599 134.054C853.199 134.798 853.499 135.914 853.499 137.402V143H850.997V137.186C850.997 136.586 850.823 136.1 850.475 135.728C850.139 135.356 849.671 135.17 849.071 135.17C848.459 135.17 847.961 135.362 847.577 135.746C847.205 136.118 847.019 136.622 847.019 137.258V143H844.517Z" fill="#6C52E3"/>
</svg>
